<mxfile host="Electron" agent="Mozilla/5.0 (Windows NT 10.0; Win64; x64) AppleWebKit/537.36 (KHTML, like Gecko) draw.io/26.0.4 Chrome/128.0.6613.186 Electron/32.2.5 Safari/537.36" version="26.0.4" pages="6">
  <diagram id="uU-5BxDW6odArLGbbiNo" name="구상">
    <mxGraphModel dx="1095" dy="1035" grid="1" gridSize="10" guides="1" tooltips="1" connect="1" arrows="1" fold="1" page="1" pageScale="1" pageWidth="827" pageHeight="1169" math="0" shadow="0">
      <root>
        <mxCell id="0" />
        <mxCell id="1" parent="0" />
        <mxCell id="17PoNLbxZREcqxHqiDvW-2" value="자격증 인강 사이트&lt;div&gt;도서 서비스&lt;/div&gt;&lt;div&gt;수강신청 시스템&lt;/div&gt;&lt;div&gt;&lt;br&gt;&lt;/div&gt;&lt;div&gt;&lt;br&gt;&lt;/div&gt;" style="text;html=1;align=left;verticalAlign=middle;resizable=0;points=[];autosize=1;strokeColor=none;fillColor=none;fontSize=20;fontStyle=1" parent="1" vertex="1">
          <mxGeometry x="90" y="50" width="190" height="130" as="geometry" />
        </mxCell>
        <mxCell id="17PoNLbxZREcqxHqiDvW-3" value="&lt;div&gt;기업평가 시스템 (블라인드 이직용 ) : 사람인같은 거랑 연계?&lt;/div&gt;&lt;div&gt;&amp;nbsp;- 재직&lt;/div&gt;&lt;div&gt;&amp;nbsp;- 신입&lt;/div&gt;&lt;div&gt;&amp;nbsp;- 회사&amp;nbsp;&lt;/div&gt;&lt;div&gt;&amp;nbsp;- 퇴직자&lt;/div&gt;&lt;div&gt;&lt;br&gt;&lt;/div&gt;" style="text;html=1;align=left;verticalAlign=middle;resizable=0;points=[];autosize=1;strokeColor=none;fillColor=none;fontStyle=1;fontSize=20;" parent="1" vertex="1">
          <mxGeometry x="300" y="50" width="560" height="160" as="geometry" />
        </mxCell>
        <mxCell id="17PoNLbxZREcqxHqiDvW-4" value="&lt;div style=&quot;font-size: 20px; font-weight: 700; text-align: left;&quot;&gt;&lt;span style=&quot;background-color: transparent; color: light-dark(rgb(0, 0, 0), rgb(255, 255, 255));&quot;&gt;예약 ( 배 예약, 포인트들 소개 ..) &amp;lt;&amp;nbsp;&lt;/span&gt;&lt;span style=&quot;background-color: transparent; color: light-dark(rgb(0, 0, 0), rgb(255, 255, 255));&quot;&gt;숙박, 여행 예약 : 민박 (유저가 등록, 갔다온 곳 소개 느낌?)&lt;/span&gt;&lt;/div&gt;&lt;div&gt;&lt;span style=&quot;background-color: transparent; color: light-dark(rgb(0, 0, 0), rgb(255, 255, 255));&quot;&gt;&lt;br&gt;&lt;/span&gt;&lt;/div&gt;" style="text;html=1;align=center;verticalAlign=middle;resizable=0;points=[];autosize=1;strokeColor=none;fillColor=none;" parent="1" vertex="1">
          <mxGeometry x="40" y="220" width="850" height="50" as="geometry" />
        </mxCell>
      </root>
    </mxGraphModel>
  </diagram>
  <diagram name="매칭" id="VY4bB2xwrEwU8oi3JUYf">
    <mxGraphModel dx="876" dy="828" grid="1" gridSize="10" guides="0" tooltips="1" connect="1" arrows="1" fold="1" page="1" pageScale="1" pageWidth="827" pageHeight="1169" math="0" shadow="0">
      <root>
        <mxCell id="0" />
        <mxCell id="1" parent="0" />
        <mxCell id="XFpZ7dTew_JIVLUXs7wM-1" value="&lt;span style=&quot;font-size: 20px; font-weight: 700; text-align: left;&quot;&gt;매칭 (구장, 인원 모음, 파티 매칭, 심판 연결 ...) - 여러 운동으로 확장가능, 참고할만한 사이트ㅇ&lt;/span&gt;" style="text;html=1;align=center;verticalAlign=middle;resizable=0;points=[];autosize=1;strokeColor=none;fillColor=none;" parent="1" vertex="1">
          <mxGeometry x="720" y="988" width="860" height="40" as="geometry" />
        </mxCell>
        <mxCell id="XFpZ7dTew_JIVLUXs7wM-2" value="회원" style="text;html=1;align=center;verticalAlign=middle;resizable=0;points=[];autosize=1;strokeColor=none;fillColor=none;fontSize=19;fontStyle=1" parent="1" vertex="1">
          <mxGeometry x="50" y="87" width="60" height="40" as="geometry" />
        </mxCell>
        <mxCell id="XFpZ7dTew_JIVLUXs7wM-3" value="비회원" style="text;html=1;align=center;verticalAlign=middle;resizable=0;points=[];autosize=1;strokeColor=none;fillColor=none;fontSize=19;fontStyle=1" parent="1" vertex="1">
          <mxGeometry x="570" y="87" width="80" height="40" as="geometry" />
        </mxCell>
        <mxCell id="XFpZ7dTew_JIVLUXs7wM-4" value="관리자" style="text;html=1;align=center;verticalAlign=middle;resizable=0;points=[];autosize=1;strokeColor=none;fillColor=none;fontSize=19;fontStyle=1" parent="1" vertex="1">
          <mxGeometry x="1090" y="87" width="80" height="40" as="geometry" />
        </mxCell>
        <mxCell id="XFpZ7dTew_JIVLUXs7wM-5" value="" style="rounded=0;whiteSpace=wrap;html=1;" parent="1" vertex="1">
          <mxGeometry x="50" y="127" width="490" height="891" as="geometry" />
        </mxCell>
        <mxCell id="XFpZ7dTew_JIVLUXs7wM-6" value="" style="rounded=0;whiteSpace=wrap;html=1;" parent="1" vertex="1">
          <mxGeometry x="570" y="127" width="490" height="291" as="geometry" />
        </mxCell>
        <mxCell id="XFpZ7dTew_JIVLUXs7wM-7" value="" style="rounded=0;whiteSpace=wrap;html=1;" parent="1" vertex="1">
          <mxGeometry x="1090" y="127" width="490" height="771" as="geometry" />
        </mxCell>
        <mxCell id="XFpZ7dTew_JIVLUXs7wM-8" value="회원정보" style="text;html=1;align=center;verticalAlign=middle;resizable=0;points=[];autosize=1;strokeColor=none;fillColor=none;fontSize=19;fontStyle=1" parent="1" vertex="1">
          <mxGeometry x="600" y="585" width="100" height="40" as="geometry" />
        </mxCell>
        <mxCell id="XFpZ7dTew_JIVLUXs7wM-9" value="운동 / 여행&amp;nbsp; / 게임 / 기타 == 취미" style="text;html=1;align=center;verticalAlign=middle;resizable=0;points=[];autosize=1;strokeColor=none;fillColor=none;fontSize=19;fontStyle=1" parent="1" vertex="1">
          <mxGeometry x="720" y="585" width="300" height="40" as="geometry" />
        </mxCell>
        <mxCell id="XFpZ7dTew_JIVLUXs7wM-10" value="인증 (로그인, 로그아웃, 회원가입) -- 기본&lt;div&gt;공지사항 -- 게시판 기능도 기본적으로 있음&lt;/div&gt;" style="text;html=1;align=left;verticalAlign=middle;resizable=0;points=[];autosize=1;strokeColor=none;fillColor=none;fontSize=17;fontStyle=1" parent="1" vertex="1">
          <mxGeometry x="570" y="438" width="350" height="50" as="geometry" />
        </mxCell>
        <mxCell id="XFpZ7dTew_JIVLUXs7wM-11" value="매칭 등록, 매칭 삭제, 매칭 수정, 매칭 조회, 매칭 신청&lt;div&gt;정보 수정, 탈퇴&lt;/div&gt;&lt;div&gt;친구 등록, 삭제, 수정, 조회&lt;/div&gt;&lt;div&gt;채팅&lt;/div&gt;&lt;div&gt;위치 (장소 정보) 지정&lt;/div&gt;&lt;div&gt;게시판&lt;/div&gt;&lt;div&gt;검색&lt;/div&gt;&lt;div&gt;참여했던 매칭 조회&lt;/div&gt;&lt;div&gt;매너 점수&lt;/div&gt;" style="text;html=1;align=center;verticalAlign=middle;resizable=0;points=[];autosize=1;strokeColor=none;fillColor=none;fontSize=19;fontStyle=1" parent="1" vertex="1">
          <mxGeometry x="580" y="689" width="470" height="220" as="geometry" />
        </mxCell>
        <mxCell id="XFpZ7dTew_JIVLUXs7wM-12" value="ㅁㅁ 는 ㅇㅇ 를 할 수 있다" style="text;html=1;align=center;verticalAlign=middle;resizable=0;points=[];autosize=1;strokeColor=none;fillColor=none;fontSize=19;fontStyle=1" parent="1" vertex="1">
          <mxGeometry x="690" y="635" width="250" height="40" as="geometry" />
        </mxCell>
        <mxCell id="XFpZ7dTew_JIVLUXs7wM-13" value="&lt;div&gt;로그인&lt;/div&gt;&lt;div&gt;로그아웃&lt;/div&gt;&lt;div&gt;&lt;br&gt;&lt;/div&gt;&lt;div&gt;알림 수신&lt;/div&gt;&lt;div&gt;&lt;br&gt;&lt;/div&gt;매칭 등록&lt;div&gt;매칭 취소&lt;/div&gt;&lt;div&gt;매칭 수정&lt;/div&gt;&lt;div&gt;매칭 리스트, 세부사항 조회&lt;/div&gt;&lt;div&gt;매칭 신청&lt;/div&gt;&lt;div&gt;&lt;br&gt;&lt;div&gt;정보 수정&lt;/div&gt;&lt;div&gt;정보 조회 (&lt;span style=&quot;background-color: transparent; color: light-dark(rgb(0, 0, 0), rgb(255, 255, 255));&quot;&gt;참여했던 매칭 조회)&lt;/span&gt;&lt;/div&gt;&lt;div&gt;회원 탈퇴&lt;/div&gt;&lt;div&gt;&lt;br&gt;&lt;/div&gt;&lt;div&gt;친구 신청&lt;/div&gt;&lt;div&gt;친구 등록&lt;/div&gt;&lt;div&gt;친구 삭제&lt;/div&gt;&lt;div&gt;친구 차단(매칭 차단)&lt;/div&gt;&lt;div&gt;친구 목록 수정&lt;/div&gt;&lt;div&gt;친구 목록 조회&lt;/div&gt;&lt;div&gt;&lt;br&gt;&lt;/div&gt;&lt;div&gt;채팅을 할 수 있음&lt;/div&gt;&lt;div&gt;&lt;br&gt;&lt;/div&gt;&lt;div&gt;&lt;span style=&quot;background-color: transparent; color: light-dark(rgb(0, 0, 0), rgb(255, 255, 255));&quot;&gt;게시판 글을 쓸 수 있음&lt;/span&gt;&lt;br&gt;&lt;/div&gt;&lt;div&gt;게시판 글을 삭제 (본인)&lt;span style=&quot;background-color: transparent; color: light-dark(rgb(0, 0, 0), rgb(255, 255, 255));&quot;&gt;&lt;br&gt;&lt;/span&gt;&lt;/div&gt;&lt;div&gt;게시판 글을 조회&lt;br&gt;&lt;/div&gt;&lt;div&gt;게시판 글을 수정 (본인)&lt;/div&gt;&lt;div&gt;&lt;br&gt;&lt;/div&gt;&lt;div&gt;&lt;span style=&quot;background-color: transparent; color: light-dark(rgb(0, 0, 0), rgb(255, 255, 255));&quot;&gt;매너 점수 조회&lt;/span&gt;&lt;br&gt;&lt;/div&gt;&lt;/div&gt;&lt;div&gt;상대 매너 점수 등록&lt;/div&gt;&lt;div&gt;&lt;br&gt;&lt;/div&gt;&lt;div&gt;신고&lt;/div&gt;" style="text;html=1;align=left;verticalAlign=middle;resizable=0;points=[];autosize=1;strokeColor=none;fillColor=none;fontSize=19;fontStyle=1" parent="1" vertex="1">
          <mxGeometry x="70" y="142" width="290" height="770" as="geometry" />
        </mxCell>
        <mxCell id="XFpZ7dTew_JIVLUXs7wM-14" value="&lt;div style=&quot;font-size: 19px; font-weight: 700; text-align: left;&quot;&gt;위치(장소 정보)지정 - 매칭 설정, 조회 키워드&lt;/div&gt;" style="text;html=1;align=center;verticalAlign=middle;resizable=0;points=[];autosize=1;strokeColor=none;fillColor=none;" parent="1" vertex="1">
          <mxGeometry x="50" y="1043" width="400" height="40" as="geometry" />
        </mxCell>
        <mxCell id="XFpZ7dTew_JIVLUXs7wM-15" value="회원가입&lt;div&gt;&lt;br&gt;&lt;/div&gt;&lt;div&gt;매칭 조회&lt;/div&gt;&lt;div&gt;&lt;br&gt;&lt;/div&gt;&lt;div&gt;로그인&lt;/div&gt;" style="text;html=1;align=left;verticalAlign=middle;resizable=0;points=[];autosize=1;strokeColor=none;fillColor=none;fontSize=19;fontStyle=1" parent="1" vertex="1">
          <mxGeometry x="590" y="142" width="100" height="130" as="geometry" />
        </mxCell>
        <mxCell id="XFpZ7dTew_JIVLUXs7wM-16" value="매칭 등록&lt;div&gt;매칭 삭제&lt;/div&gt;&lt;div&gt;매칭 수정&lt;/div&gt;&lt;div&gt;매칭 조회&lt;/div&gt;&lt;div&gt;매칭 개입&lt;/div&gt;&lt;div&gt;&lt;br&gt;&lt;/div&gt;&lt;div&gt;알림 보내기&lt;/div&gt;&lt;div&gt;&lt;br&gt;&lt;/div&gt;&lt;div&gt;&lt;div&gt;회원 정보 수정&lt;/div&gt;&lt;div&gt;회원 정보 조회&lt;/div&gt;&lt;div&gt;회원 정보 삭제&lt;/div&gt;&lt;div&gt;&lt;br&gt;&lt;/div&gt;&lt;div&gt;사용자 로그 조회&lt;/div&gt;&lt;div&gt;&lt;br&gt;&lt;/div&gt;&lt;div&gt;친구 차단&lt;/div&gt;&lt;div&gt;친구 목록 수정&lt;/div&gt;&lt;div&gt;친구 목록 조회&lt;/div&gt;&lt;div&gt;&lt;br&gt;&lt;/div&gt;&lt;div&gt;채팅을 할 수 있음&lt;/div&gt;&lt;div&gt;채팅 차단&lt;/div&gt;&lt;div&gt;&lt;br&gt;&lt;/div&gt;&lt;div&gt;&lt;span style=&quot;background-color: transparent; color: light-dark(rgb(0, 0, 0), rgb(255, 255, 255));&quot;&gt;게시판 글을 쓸 수 있음&lt;/span&gt;&lt;br&gt;&lt;/div&gt;&lt;div&gt;게시판 글을 삭제&lt;span style=&quot;background-color: transparent; color: light-dark(rgb(0, 0, 0), rgb(255, 255, 255));&quot;&gt;&lt;br&gt;&lt;/span&gt;&lt;/div&gt;&lt;div&gt;게시판 글을 조회&lt;br&gt;&lt;/div&gt;&lt;div&gt;&lt;br&gt;&lt;/div&gt;&lt;div&gt;&lt;span style=&quot;background-color: transparent; color: light-dark(rgb(0, 0, 0), rgb(255, 255, 255));&quot;&gt;매너 점수 조회&lt;/span&gt;&lt;/div&gt;&lt;/div&gt;&lt;div&gt;신고 목록 조회&lt;/div&gt;&lt;div&gt;블랙리스트&lt;/div&gt;&lt;div&gt;&lt;br&gt;&lt;/div&gt;&lt;div&gt;통계 확인&lt;/div&gt;" style="text;html=1;align=left;verticalAlign=middle;resizable=0;points=[];autosize=1;strokeColor=none;fillColor=none;fontSize=19;fontStyle=1" parent="1" vertex="1">
          <mxGeometry x="1110" y="142" width="220" height="700" as="geometry" />
        </mxCell>
      </root>
    </mxGraphModel>
  </diagram>
  <diagram id="-hWe-Gk-X11tYwHxpUuK" name="유스케이스">
    <mxGraphModel dx="1752" dy="1656" grid="1" gridSize="10" guides="1" tooltips="1" connect="1" arrows="1" fold="1" page="1" pageScale="1" pageWidth="827" pageHeight="1169" math="0" shadow="0">
      <root>
        <mxCell id="0" />
        <mxCell id="1" parent="0" />
        <mxCell id="Gg4r0DaN0LE6ULb9wv_x-1" value="&lt;div&gt;로그인&lt;/div&gt;&lt;div&gt;로그아웃&lt;/div&gt;&lt;div&gt;&lt;br&gt;&lt;/div&gt;&lt;div&gt;알림 수신&lt;/div&gt;&lt;div&gt;&lt;br&gt;&lt;/div&gt;매칭 등록&lt;div&gt;매칭 취소&lt;/div&gt;&lt;div&gt;매칭 수정&lt;/div&gt;&lt;div&gt;매칭 리스트, 세부사항 조회&lt;/div&gt;&lt;div&gt;매칭 신청&lt;/div&gt;&lt;div&gt;&lt;br&gt;&lt;div&gt;정보 수정&lt;/div&gt;&lt;div&gt;정보 조회 (&lt;span style=&quot;background-color: transparent; color: light-dark(rgb(0, 0, 0), rgb(255, 255, 255));&quot;&gt;참여했던 매칭 조회)&lt;/span&gt;&lt;/div&gt;&lt;div&gt;회원 탈퇴&lt;/div&gt;&lt;div&gt;&lt;br&gt;&lt;/div&gt;&lt;div&gt;친구 신청&lt;/div&gt;&lt;div&gt;친구 등록&lt;/div&gt;&lt;div&gt;친구 삭제&lt;/div&gt;&lt;div&gt;친구 차단(매칭 차단)&lt;/div&gt;&lt;div&gt;&lt;span style=&quot;background-color: transparent; color: light-dark(rgb(0, 0, 0), rgb(255, 255, 255));&quot;&gt;친구 목록 조회&lt;/span&gt;&lt;br&gt;&lt;/div&gt;&lt;div&gt;&lt;br&gt;&lt;/div&gt;&lt;div&gt;채팅을 할 수 있음&lt;/div&gt;&lt;div&gt;&lt;br&gt;&lt;/div&gt;&lt;div&gt;&lt;span style=&quot;background-color: transparent; color: light-dark(rgb(0, 0, 0), rgb(255, 255, 255));&quot;&gt;게시판 글을 쓸 수 있음&lt;/span&gt;&lt;br&gt;&lt;/div&gt;&lt;div&gt;게시판 글을 삭제 (본인)&lt;span style=&quot;background-color: transparent; color: light-dark(rgb(0, 0, 0), rgb(255, 255, 255));&quot;&gt;&lt;br&gt;&lt;/span&gt;&lt;/div&gt;&lt;div&gt;게시판 글을 조회&lt;br&gt;&lt;/div&gt;&lt;div&gt;게시판 글을 수정 (본인)&lt;/div&gt;&lt;div&gt;&lt;br&gt;&lt;/div&gt;&lt;div&gt;&lt;span style=&quot;background-color: transparent; color: light-dark(rgb(0, 0, 0), rgb(255, 255, 255));&quot;&gt;매너 점수 조회&lt;/span&gt;&lt;br&gt;&lt;/div&gt;&lt;/div&gt;&lt;div&gt;상대 매너 점수 등록&lt;/div&gt;&lt;div&gt;&lt;br&gt;&lt;/div&gt;&lt;div&gt;신고&lt;/div&gt;" style="text;html=1;align=left;verticalAlign=middle;resizable=0;points=[];autosize=1;strokeColor=none;fillColor=none;fontSize=12;fontStyle=1" parent="1" vertex="1">
          <mxGeometry x="40" y="400" width="190" height="470" as="geometry" />
        </mxCell>
        <mxCell id="Gg4r0DaN0LE6ULb9wv_x-2" value="회원가입&lt;div&gt;&lt;br&gt;&lt;/div&gt;&lt;div&gt;매칭 조회&lt;/div&gt;&lt;div&gt;&lt;br&gt;&lt;/div&gt;&lt;div&gt;로그인&lt;/div&gt;" style="text;html=1;align=left;verticalAlign=middle;resizable=0;points=[];autosize=1;strokeColor=none;fillColor=none;fontSize=12;fontStyle=1" parent="1" vertex="1">
          <mxGeometry x="40" y="250" width="70" height="90" as="geometry" />
        </mxCell>
        <mxCell id="Gg4r0DaN0LE6ULb9wv_x-3" value="매칭 등록&lt;div&gt;매칭 삭제&lt;/div&gt;&lt;div&gt;매칭 수정&lt;/div&gt;&lt;div&gt;매칭 조회&lt;/div&gt;&lt;div&gt;매칭 개입&lt;/div&gt;&lt;div&gt;&lt;br&gt;&lt;/div&gt;&lt;div&gt;알림 보내기&lt;/div&gt;&lt;div&gt;&lt;br&gt;&lt;/div&gt;&lt;div&gt;&lt;div&gt;회원 정보 수정&lt;/div&gt;&lt;div&gt;회원 정보 조회&lt;/div&gt;&lt;div&gt;회원 정보 삭제&lt;/div&gt;&lt;div&gt;&lt;br&gt;&lt;/div&gt;&lt;div&gt;사용자 로그 조회 -&amp;gt; 회원정보 확인&lt;/div&gt;&lt;div&gt;&lt;br&gt;&lt;/div&gt;&lt;div&gt;친구 차단&lt;/div&gt;&lt;div&gt;친구 목록 수정&lt;/div&gt;&lt;div&gt;친구 목록 조회&lt;/div&gt;&lt;div&gt;&lt;br&gt;&lt;/div&gt;&lt;div&gt;채팅을 할 수 있음&lt;/div&gt;&lt;div&gt;채팅 차단&lt;/div&gt;&lt;div&gt;채팅 로그 조회&lt;/div&gt;&lt;div&gt;&lt;br&gt;&lt;/div&gt;&lt;div&gt;&lt;span style=&quot;background-color: transparent; color: light-dark(rgb(0, 0, 0), rgb(255, 255, 255));&quot;&gt;게시판 글을 쓸 수 있음&lt;/span&gt;&lt;br&gt;&lt;/div&gt;&lt;div&gt;게시판 글을 삭제&lt;span style=&quot;background-color: transparent; color: light-dark(rgb(0, 0, 0), rgb(255, 255, 255));&quot;&gt;&lt;br&gt;&lt;/span&gt;&lt;/div&gt;&lt;div&gt;게시판 글을 조회&lt;br&gt;&lt;/div&gt;&lt;div&gt;&lt;br&gt;&lt;/div&gt;&lt;div&gt;&lt;span style=&quot;background-color: transparent; color: light-dark(rgb(0, 0, 0), rgb(255, 255, 255));&quot;&gt;매너 점수 조회&lt;/span&gt;&lt;/div&gt;&lt;/div&gt;&lt;div&gt;신고 목록 조회&lt;/div&gt;&lt;div&gt;블랙리스트 -&amp;gt; 회원 차단? 삭제&lt;/div&gt;&lt;div&gt;&lt;br&gt;&lt;/div&gt;&lt;div&gt;통계 확인&lt;/div&gt;" style="text;html=1;align=left;verticalAlign=middle;resizable=0;points=[];autosize=1;strokeColor=none;fillColor=none;fontSize=12;fontStyle=1" parent="1" vertex="1">
          <mxGeometry x="1570" y="215" width="210" height="460" as="geometry" />
        </mxCell>
        <mxCell id="Gg4r0DaN0LE6ULb9wv_x-4" value="동호회 매칭 시스템" style="shape=umlFrame;whiteSpace=wrap;html=1;pointerEvents=0;width=150;height=30;" parent="1" vertex="1">
          <mxGeometry x="310" y="190" width="1230" height="1170" as="geometry" />
        </mxCell>
        <mxCell id="Gg4r0DaN0LE6ULb9wv_x-5" value="비회원" style="shape=umlActor;verticalLabelPosition=bottom;verticalAlign=top;html=1;" parent="1" vertex="1">
          <mxGeometry x="237" y="270" width="30" height="60" as="geometry" />
        </mxCell>
        <mxCell id="Gg4r0DaN0LE6ULb9wv_x-7" value="회원" style="shape=umlActor;verticalLabelPosition=bottom;verticalAlign=top;html=1;" parent="1" vertex="1">
          <mxGeometry x="237" y="750" width="30" height="60" as="geometry" />
        </mxCell>
        <mxCell id="Gg4r0DaN0LE6ULb9wv_x-10" value="매칭 조회" style="ellipse;whiteSpace=wrap;html=1;" parent="1" vertex="1">
          <mxGeometry x="406.5" y="300" width="130" height="50" as="geometry" />
        </mxCell>
        <mxCell id="3iwhiVxgtKgjzXfJWk4y-14" style="edgeStyle=orthogonalEdgeStyle;rounded=0;orthogonalLoop=1;jettySize=auto;html=1;endArrow=block;endFill=0;" parent="1" source="Gg4r0DaN0LE6ULb9wv_x-11" target="Gg4r0DaN0LE6ULb9wv_x-30" edge="1">
          <mxGeometry relative="1" as="geometry">
            <Array as="points">
              <mxPoint x="495" y="460" />
              <mxPoint x="595" y="460" />
            </Array>
          </mxGeometry>
        </mxCell>
        <mxCell id="Gg4r0DaN0LE6ULb9wv_x-11" value="매칭&lt;div&gt;등록&lt;/div&gt;" style="ellipse;whiteSpace=wrap;html=1;" parent="1" vertex="1">
          <mxGeometry x="470" y="400" width="50" height="50" as="geometry" />
        </mxCell>
        <mxCell id="3iwhiVxgtKgjzXfJWk4y-15" style="edgeStyle=orthogonalEdgeStyle;rounded=0;orthogonalLoop=1;jettySize=auto;html=1;entryX=0.5;entryY=0;entryDx=0;entryDy=0;endArrow=block;endFill=0;" parent="1" source="Gg4r0DaN0LE6ULb9wv_x-13" target="Gg4r0DaN0LE6ULb9wv_x-30" edge="1">
          <mxGeometry relative="1" as="geometry">
            <Array as="points">
              <mxPoint x="545" y="460" />
              <mxPoint x="595" y="460" />
            </Array>
          </mxGeometry>
        </mxCell>
        <mxCell id="Gg4r0DaN0LE6ULb9wv_x-13" value="매칭&lt;div&gt;취소&lt;/div&gt;" style="ellipse;whiteSpace=wrap;html=1;" parent="1" vertex="1">
          <mxGeometry x="520" y="400" width="50" height="50" as="geometry" />
        </mxCell>
        <mxCell id="3iwhiVxgtKgjzXfJWk4y-16" style="edgeStyle=orthogonalEdgeStyle;rounded=0;orthogonalLoop=1;jettySize=auto;html=1;entryX=0.5;entryY=0;entryDx=0;entryDy=0;endArrow=block;endFill=0;" parent="1" source="Gg4r0DaN0LE6ULb9wv_x-14" target="Gg4r0DaN0LE6ULb9wv_x-30" edge="1">
          <mxGeometry relative="1" as="geometry" />
        </mxCell>
        <mxCell id="Gg4r0DaN0LE6ULb9wv_x-14" value="매칭&lt;div&gt;수정&lt;/div&gt;" style="ellipse;whiteSpace=wrap;html=1;" parent="1" vertex="1">
          <mxGeometry x="570" y="400" width="50" height="50" as="geometry" />
        </mxCell>
        <mxCell id="3iwhiVxgtKgjzXfJWk4y-17" style="edgeStyle=orthogonalEdgeStyle;rounded=0;orthogonalLoop=1;jettySize=auto;html=1;entryX=0.5;entryY=0;entryDx=0;entryDy=0;endArrow=block;endFill=0;" parent="1" source="Gg4r0DaN0LE6ULb9wv_x-15" target="Gg4r0DaN0LE6ULb9wv_x-30" edge="1">
          <mxGeometry relative="1" as="geometry">
            <Array as="points">
              <mxPoint x="645" y="460" />
              <mxPoint x="595" y="460" />
            </Array>
          </mxGeometry>
        </mxCell>
        <mxCell id="Gg4r0DaN0LE6ULb9wv_x-15" value="매칭&lt;div&gt;신청&lt;/div&gt;" style="ellipse;whiteSpace=wrap;html=1;" parent="1" vertex="1">
          <mxGeometry x="620" y="400" width="50" height="50" as="geometry" />
        </mxCell>
        <mxCell id="Gg4r0DaN0LE6ULb9wv_x-16" value="리스트" style="ellipse;whiteSpace=wrap;html=1;" parent="1" vertex="1">
          <mxGeometry x="416.5" y="230" width="50" height="50" as="geometry" />
        </mxCell>
        <mxCell id="3iwhiVxgtKgjzXfJWk4y-13" style="edgeStyle=orthogonalEdgeStyle;rounded=0;orthogonalLoop=1;jettySize=auto;html=1;entryX=0.5;entryY=0;entryDx=0;entryDy=0;endArrow=block;endFill=0;" parent="1" source="Gg4r0DaN0LE6ULb9wv_x-17" target="Gg4r0DaN0LE6ULb9wv_x-10" edge="1">
          <mxGeometry relative="1" as="geometry">
            <Array as="points">
              <mxPoint x="472" y="290" />
            </Array>
          </mxGeometry>
        </mxCell>
        <mxCell id="Gg4r0DaN0LE6ULb9wv_x-17" value="세부사항" style="ellipse;whiteSpace=wrap;html=1;" parent="1" vertex="1">
          <mxGeometry x="476.5" y="230" width="50" height="50" as="geometry" />
        </mxCell>
        <mxCell id="Gg4r0DaN0LE6ULb9wv_x-30" value="매칭" style="ellipse;whiteSpace=wrap;html=1;" parent="1" vertex="1">
          <mxGeometry x="530" y="475" width="130" height="50" as="geometry" />
        </mxCell>
        <mxCell id="3iwhiVxgtKgjzXfJWk4y-36" style="edgeStyle=orthogonalEdgeStyle;rounded=0;orthogonalLoop=1;jettySize=auto;html=1;entryX=0.5;entryY=0;entryDx=0;entryDy=0;endArrow=block;endFill=0;" parent="1" source="Gg4r0DaN0LE6ULb9wv_x-31" target="Gg4r0DaN0LE6ULb9wv_x-35" edge="1">
          <mxGeometry relative="1" as="geometry">
            <Array as="points">
              <mxPoint x="557" y="1130" />
              <mxPoint x="592" y="1130" />
            </Array>
          </mxGeometry>
        </mxCell>
        <mxCell id="Gg4r0DaN0LE6ULb9wv_x-31" value="정보&lt;div&gt;수정&lt;/div&gt;" style="ellipse;whiteSpace=wrap;html=1;" parent="1" vertex="1">
          <mxGeometry x="532" y="1070" width="50" height="50" as="geometry" />
        </mxCell>
        <mxCell id="3iwhiVxgtKgjzXfJWk4y-37" style="edgeStyle=orthogonalEdgeStyle;rounded=0;orthogonalLoop=1;jettySize=auto;html=1;entryX=0.5;entryY=0;entryDx=0;entryDy=0;endArrow=block;endFill=0;" parent="1" source="Gg4r0DaN0LE6ULb9wv_x-32" target="Gg4r0DaN0LE6ULb9wv_x-35" edge="1">
          <mxGeometry relative="1" as="geometry">
            <Array as="points">
              <mxPoint x="607" y="1130" />
              <mxPoint x="592" y="1130" />
            </Array>
          </mxGeometry>
        </mxCell>
        <mxCell id="Gg4r0DaN0LE6ULb9wv_x-32" value="정보&lt;div&gt;조회&lt;/div&gt;" style="ellipse;whiteSpace=wrap;html=1;" parent="1" vertex="1">
          <mxGeometry x="582" y="1070" width="50" height="50" as="geometry" />
        </mxCell>
        <mxCell id="3iwhiVxgtKgjzXfJWk4y-38" style="edgeStyle=orthogonalEdgeStyle;rounded=0;orthogonalLoop=1;jettySize=auto;html=1;entryX=0.5;entryY=0;entryDx=0;entryDy=0;endArrow=block;endFill=0;" parent="1" source="Gg4r0DaN0LE6ULb9wv_x-33" target="Gg4r0DaN0LE6ULb9wv_x-35" edge="1">
          <mxGeometry relative="1" as="geometry">
            <Array as="points">
              <mxPoint x="657" y="1130" />
              <mxPoint x="592" y="1130" />
            </Array>
          </mxGeometry>
        </mxCell>
        <mxCell id="Gg4r0DaN0LE6ULb9wv_x-33" value="회원&lt;div&gt;탈퇴&lt;/div&gt;" style="ellipse;whiteSpace=wrap;html=1;" parent="1" vertex="1">
          <mxGeometry x="632" y="1070" width="50" height="50" as="geometry" />
        </mxCell>
        <mxCell id="Gg4r0DaN0LE6ULb9wv_x-35" value="나의 정보" style="ellipse;whiteSpace=wrap;html=1;" parent="1" vertex="1">
          <mxGeometry x="526.5" y="1150" width="130" height="50" as="geometry" />
        </mxCell>
        <mxCell id="3iwhiVxgtKgjzXfJWk4y-19" style="edgeStyle=orthogonalEdgeStyle;rounded=0;orthogonalLoop=1;jettySize=auto;html=1;exitX=0.5;exitY=1;exitDx=0;exitDy=0;entryX=0.5;entryY=0;entryDx=0;entryDy=0;endArrow=block;endFill=0;" parent="1" source="Gg4r0DaN0LE6ULb9wv_x-36" target="Gg4r0DaN0LE6ULb9wv_x-40" edge="1">
          <mxGeometry relative="1" as="geometry">
            <Array as="points">
              <mxPoint x="505" y="610" />
              <mxPoint x="505" y="620" />
              <mxPoint x="632" y="620" />
            </Array>
          </mxGeometry>
        </mxCell>
        <mxCell id="Gg4r0DaN0LE6ULb9wv_x-36" value="&lt;div&gt;친구&lt;/div&gt;&lt;div&gt;신청&lt;/div&gt;" style="ellipse;whiteSpace=wrap;html=1;" parent="1" vertex="1">
          <mxGeometry x="481.5" y="560" width="50" height="50" as="geometry" />
        </mxCell>
        <mxCell id="3iwhiVxgtKgjzXfJWk4y-21" style="edgeStyle=orthogonalEdgeStyle;rounded=0;orthogonalLoop=1;jettySize=auto;html=1;entryX=0.5;entryY=0;entryDx=0;entryDy=0;endArrow=block;endFill=0;" parent="1" source="Gg4r0DaN0LE6ULb9wv_x-37" target="Gg4r0DaN0LE6ULb9wv_x-40" edge="1">
          <mxGeometry relative="1" as="geometry">
            <Array as="points">
              <mxPoint x="556" y="620" />
              <mxPoint x="632" y="620" />
            </Array>
          </mxGeometry>
        </mxCell>
        <mxCell id="Gg4r0DaN0LE6ULb9wv_x-37" value="친구&lt;div&gt;등록&lt;/div&gt;" style="ellipse;whiteSpace=wrap;html=1;" parent="1" vertex="1">
          <mxGeometry x="531.5" y="560" width="50" height="50" as="geometry" />
        </mxCell>
        <mxCell id="3iwhiVxgtKgjzXfJWk4y-22" style="edgeStyle=orthogonalEdgeStyle;rounded=0;orthogonalLoop=1;jettySize=auto;html=1;entryX=0.5;entryY=0;entryDx=0;entryDy=0;endArrow=block;endFill=0;" parent="1" source="Gg4r0DaN0LE6ULb9wv_x-38" target="Gg4r0DaN0LE6ULb9wv_x-40" edge="1">
          <mxGeometry relative="1" as="geometry">
            <Array as="points">
              <mxPoint x="606" y="620" />
              <mxPoint x="632" y="620" />
            </Array>
          </mxGeometry>
        </mxCell>
        <mxCell id="Gg4r0DaN0LE6ULb9wv_x-38" value="친구&lt;div&gt;삭제&lt;/div&gt;" style="ellipse;whiteSpace=wrap;html=1;" parent="1" vertex="1">
          <mxGeometry x="580.75" y="560" width="50" height="50" as="geometry" />
        </mxCell>
        <mxCell id="3iwhiVxgtKgjzXfJWk4y-23" style="edgeStyle=orthogonalEdgeStyle;rounded=0;orthogonalLoop=1;jettySize=auto;html=1;entryX=0.5;entryY=0;entryDx=0;entryDy=0;endArrow=block;endFill=0;" parent="1" source="Gg4r0DaN0LE6ULb9wv_x-39" target="Gg4r0DaN0LE6ULb9wv_x-40" edge="1">
          <mxGeometry relative="1" as="geometry">
            <Array as="points">
              <mxPoint x="656" y="620" />
              <mxPoint x="632" y="620" />
            </Array>
          </mxGeometry>
        </mxCell>
        <mxCell id="Gg4r0DaN0LE6ULb9wv_x-39" value="친구&lt;div&gt;차단&lt;/div&gt;" style="ellipse;whiteSpace=wrap;html=1;" parent="1" vertex="1">
          <mxGeometry x="630.75" y="560" width="50" height="50" as="geometry" />
        </mxCell>
        <mxCell id="Gg4r0DaN0LE6ULb9wv_x-40" value="친구" style="ellipse;whiteSpace=wrap;html=1;" parent="1" vertex="1">
          <mxGeometry x="566.5" y="635" width="130" height="50" as="geometry" />
        </mxCell>
        <mxCell id="3iwhiVxgtKgjzXfJWk4y-24" style="edgeStyle=orthogonalEdgeStyle;rounded=0;orthogonalLoop=1;jettySize=auto;html=1;entryX=0.5;entryY=0;entryDx=0;entryDy=0;endArrow=block;endFill=0;" parent="1" source="Gg4r0DaN0LE6ULb9wv_x-41" target="Gg4r0DaN0LE6ULb9wv_x-40" edge="1">
          <mxGeometry relative="1" as="geometry">
            <Array as="points">
              <mxPoint x="706" y="620" />
              <mxPoint x="632" y="620" />
            </Array>
          </mxGeometry>
        </mxCell>
        <mxCell id="Gg4r0DaN0LE6ULb9wv_x-41" value="친구목록&lt;div&gt;조회&lt;/div&gt;" style="ellipse;whiteSpace=wrap;html=1;" parent="1" vertex="1">
          <mxGeometry x="680.75" y="560" width="50" height="50" as="geometry" />
        </mxCell>
        <mxCell id="Gg4r0DaN0LE6ULb9wv_x-43" value="채팅" style="ellipse;whiteSpace=wrap;html=1;" parent="1" vertex="1">
          <mxGeometry x="858.37" y="560" width="130" height="50" as="geometry" />
        </mxCell>
        <mxCell id="3iwhiVxgtKgjzXfJWk4y-41" style="edgeStyle=orthogonalEdgeStyle;rounded=0;orthogonalLoop=1;jettySize=auto;html=1;entryX=0.5;entryY=0;entryDx=0;entryDy=0;" parent="1" source="Gg4r0DaN0LE6ULb9wv_x-44" target="Gg4r0DaN0LE6ULb9wv_x-43" edge="1">
          <mxGeometry relative="1" as="geometry">
            <Array as="points">
              <mxPoint x="873.62" y="550" />
              <mxPoint x="923.62" y="550" />
            </Array>
          </mxGeometry>
        </mxCell>
        <mxCell id="Gg4r0DaN0LE6ULb9wv_x-44" value="채팅목록&lt;div&gt;조회&lt;/div&gt;" style="ellipse;whiteSpace=wrap;html=1;" parent="1" vertex="1">
          <mxGeometry x="848.37" y="485" width="50" height="50" as="geometry" />
        </mxCell>
        <mxCell id="3iwhiVxgtKgjzXfJWk4y-43" style="edgeStyle=orthogonalEdgeStyle;rounded=0;orthogonalLoop=1;jettySize=auto;html=1;entryX=0.5;entryY=0;entryDx=0;entryDy=0;" parent="1" source="Gg4r0DaN0LE6ULb9wv_x-45" target="Gg4r0DaN0LE6ULb9wv_x-43" edge="1">
          <mxGeometry relative="1" as="geometry">
            <Array as="points">
              <mxPoint x="973.62" y="550" />
              <mxPoint x="923.62" y="550" />
            </Array>
          </mxGeometry>
        </mxCell>
        <mxCell id="Gg4r0DaN0LE6ULb9wv_x-45" value="채팅방&lt;div&gt;삭제&lt;/div&gt;" style="ellipse;whiteSpace=wrap;html=1;" parent="1" vertex="1">
          <mxGeometry x="948.37" y="485" width="50" height="50" as="geometry" />
        </mxCell>
        <mxCell id="3iwhiVxgtKgjzXfJWk4y-40" style="edgeStyle=orthogonalEdgeStyle;rounded=0;orthogonalLoop=1;jettySize=auto;html=1;entryX=0.5;entryY=0;entryDx=0;entryDy=0;" parent="1" source="Gg4r0DaN0LE6ULb9wv_x-46" target="Gg4r0DaN0LE6ULb9wv_x-43" edge="1">
          <mxGeometry relative="1" as="geometry">
            <Array as="points">
              <mxPoint x="823.62" y="550" />
              <mxPoint x="923.62" y="550" />
            </Array>
          </mxGeometry>
        </mxCell>
        <mxCell id="Gg4r0DaN0LE6ULb9wv_x-46" value="채팅방&lt;div&gt;생성&lt;/div&gt;" style="ellipse;whiteSpace=wrap;html=1;" parent="1" vertex="1">
          <mxGeometry x="798.37" y="485" width="50" height="50" as="geometry" />
        </mxCell>
        <mxCell id="3iwhiVxgtKgjzXfJWk4y-42" style="edgeStyle=orthogonalEdgeStyle;rounded=0;orthogonalLoop=1;jettySize=auto;html=1;entryX=0.5;entryY=0;entryDx=0;entryDy=0;" parent="1" source="Gg4r0DaN0LE6ULb9wv_x-48" target="Gg4r0DaN0LE6ULb9wv_x-43" edge="1">
          <mxGeometry relative="1" as="geometry" />
        </mxCell>
        <mxCell id="Gg4r0DaN0LE6ULb9wv_x-48" value="채팅" style="ellipse;whiteSpace=wrap;html=1;" parent="1" vertex="1">
          <mxGeometry x="898.37" y="485" width="50" height="50" as="geometry" />
        </mxCell>
        <mxCell id="Gg4r0DaN0LE6ULb9wv_x-49" value="커뮤니티" style="ellipse;whiteSpace=wrap;html=1;" parent="1" vertex="1">
          <mxGeometry x="590" y="820" width="130" height="50" as="geometry" />
        </mxCell>
        <mxCell id="3iwhiVxgtKgjzXfJWk4y-26" style="edgeStyle=orthogonalEdgeStyle;rounded=0;orthogonalLoop=1;jettySize=auto;html=1;entryX=0.5;entryY=0;entryDx=0;entryDy=0;endArrow=block;endFill=0;" parent="1" source="Gg4r0DaN0LE6ULb9wv_x-50" target="Gg4r0DaN0LE6ULb9wv_x-49" edge="1">
          <mxGeometry relative="1" as="geometry">
            <Array as="points">
              <mxPoint x="535" y="810" />
              <mxPoint x="655" y="810" />
            </Array>
          </mxGeometry>
        </mxCell>
        <mxCell id="Gg4r0DaN0LE6ULb9wv_x-50" value="글 목록&lt;div&gt;조회&lt;/div&gt;" style="ellipse;whiteSpace=wrap;html=1;" parent="1" vertex="1">
          <mxGeometry x="510" y="750" width="50" height="50" as="geometry" />
        </mxCell>
        <mxCell id="3iwhiVxgtKgjzXfJWk4y-30" style="edgeStyle=orthogonalEdgeStyle;rounded=0;orthogonalLoop=1;jettySize=auto;html=1;entryX=0.5;entryY=0;entryDx=0;entryDy=0;endArrow=block;endFill=0;" parent="1" source="Gg4r0DaN0LE6ULb9wv_x-51" target="Gg4r0DaN0LE6ULb9wv_x-49" edge="1">
          <mxGeometry relative="1" as="geometry">
            <Array as="points">
              <mxPoint x="685" y="810" />
              <mxPoint x="655" y="810" />
            </Array>
          </mxGeometry>
        </mxCell>
        <mxCell id="Gg4r0DaN0LE6ULb9wv_x-51" value="본인 글&lt;div&gt;수정&lt;/div&gt;" style="ellipse;whiteSpace=wrap;html=1;" parent="1" vertex="1">
          <mxGeometry x="660" y="750" width="50" height="50" as="geometry" />
        </mxCell>
        <mxCell id="3iwhiVxgtKgjzXfJWk4y-27" style="edgeStyle=orthogonalEdgeStyle;rounded=0;orthogonalLoop=1;jettySize=auto;html=1;exitX=0.5;exitY=1;exitDx=0;exitDy=0;entryX=0.5;entryY=0;entryDx=0;entryDy=0;endArrow=block;endFill=0;" parent="1" source="Gg4r0DaN0LE6ULb9wv_x-52" target="Gg4r0DaN0LE6ULb9wv_x-49" edge="1">
          <mxGeometry relative="1" as="geometry">
            <Array as="points">
              <mxPoint x="585" y="810" />
              <mxPoint x="655" y="810" />
            </Array>
          </mxGeometry>
        </mxCell>
        <mxCell id="Gg4r0DaN0LE6ULb9wv_x-52" value="글쓰기" style="ellipse;whiteSpace=wrap;html=1;" parent="1" vertex="1">
          <mxGeometry x="560" y="750" width="50" height="50" as="geometry" />
        </mxCell>
        <mxCell id="3iwhiVxgtKgjzXfJWk4y-29" style="edgeStyle=orthogonalEdgeStyle;rounded=0;orthogonalLoop=1;jettySize=auto;html=1;entryX=0.5;entryY=0;entryDx=0;entryDy=0;endArrow=block;endFill=0;" parent="1" source="Gg4r0DaN0LE6ULb9wv_x-53" target="Gg4r0DaN0LE6ULb9wv_x-49" edge="1">
          <mxGeometry relative="1" as="geometry">
            <Array as="points">
              <mxPoint x="635" y="810" />
              <mxPoint x="655" y="810" />
            </Array>
          </mxGeometry>
        </mxCell>
        <mxCell id="Gg4r0DaN0LE6ULb9wv_x-53" value="글내용&lt;div&gt;조회&lt;/div&gt;" style="ellipse;whiteSpace=wrap;html=1;" parent="1" vertex="1">
          <mxGeometry x="610" y="750" width="50" height="50" as="geometry" />
        </mxCell>
        <mxCell id="3iwhiVxgtKgjzXfJWk4y-35" style="edgeStyle=orthogonalEdgeStyle;rounded=0;orthogonalLoop=1;jettySize=auto;html=1;entryX=0.5;entryY=0;entryDx=0;entryDy=0;endArrow=block;endFill=0;" parent="1" source="Gg4r0DaN0LE6ULb9wv_x-54" target="Gg4r0DaN0LE6ULb9wv_x-57" edge="1">
          <mxGeometry relative="1" as="geometry">
            <Array as="points">
              <mxPoint x="655" y="970" />
              <mxPoint x="632" y="970" />
            </Array>
          </mxGeometry>
        </mxCell>
        <mxCell id="Gg4r0DaN0LE6ULb9wv_x-54" value="매너&lt;span style=&quot;background-color: transparent; color: light-dark(rgb(0, 0, 0), rgb(255, 255, 255));&quot;&gt;점수&lt;/span&gt;&lt;div&gt;&lt;span style=&quot;background-color: transparent; color: light-dark(rgb(0, 0, 0), rgb(255, 255, 255));&quot;&gt;조회&lt;/span&gt;&lt;/div&gt;" style="ellipse;whiteSpace=wrap;html=1;" parent="1" vertex="1">
          <mxGeometry x="630.25" y="910" width="50" height="50" as="geometry" />
        </mxCell>
        <mxCell id="Gg4r0DaN0LE6ULb9wv_x-55" value="상대&lt;div&gt;매너점수&lt;/div&gt;&lt;div&gt;등록&lt;/div&gt;" style="ellipse;whiteSpace=wrap;html=1;" parent="1" vertex="1">
          <mxGeometry x="750" y="400" width="50" height="50" as="geometry" />
        </mxCell>
        <mxCell id="3iwhiVxgtKgjzXfJWk4y-32" style="edgeStyle=orthogonalEdgeStyle;rounded=0;orthogonalLoop=1;jettySize=auto;html=1;entryX=0.5;entryY=0;entryDx=0;entryDy=0;endArrow=block;endFill=0;" parent="1" source="Gg4r0DaN0LE6ULb9wv_x-56" target="Gg4r0DaN0LE6ULb9wv_x-49" edge="1">
          <mxGeometry relative="1" as="geometry">
            <Array as="points">
              <mxPoint x="785" y="810" />
              <mxPoint x="655" y="810" />
            </Array>
          </mxGeometry>
        </mxCell>
        <mxCell id="Gg4r0DaN0LE6ULb9wv_x-56" value="알림" style="ellipse;whiteSpace=wrap;html=1;" parent="1" vertex="1">
          <mxGeometry x="760" y="750" width="50" height="50" as="geometry" />
        </mxCell>
        <mxCell id="Gg4r0DaN0LE6ULb9wv_x-57" value="상대 정보" style="ellipse;whiteSpace=wrap;html=1;" parent="1" vertex="1">
          <mxGeometry x="566.5" y="985" width="130" height="50" as="geometry" />
        </mxCell>
        <mxCell id="Gg4r0DaN0LE6ULb9wv_x-58" value="회원가입" style="ellipse;whiteSpace=wrap;html=1;" parent="1" vertex="1">
          <mxGeometry x="856.75" y="255" width="130" height="50" as="geometry" />
        </mxCell>
        <mxCell id="Gg4r0DaN0LE6ULb9wv_x-59" value="로그인" style="ellipse;whiteSpace=wrap;html=1;" parent="1" vertex="1">
          <mxGeometry x="336.5" y="770" width="130" height="50" as="geometry" />
        </mxCell>
        <mxCell id="Gg4r0DaN0LE6ULb9wv_x-60" value="로그아웃" style="ellipse;whiteSpace=wrap;html=1;" parent="1" vertex="1">
          <mxGeometry x="856.75" y="320" width="130" height="50" as="geometry" />
        </mxCell>
        <mxCell id="3iwhiVxgtKgjzXfJWk4y-46" style="edgeStyle=orthogonalEdgeStyle;rounded=0;orthogonalLoop=1;jettySize=auto;html=1;entryX=0.5;entryY=0;entryDx=0;entryDy=0;endArrow=block;endFill=0;" parent="1" source="Gg4r0DaN0LE6ULb9wv_x-62" target="Gg4r0DaN0LE6ULb9wv_x-65" edge="1">
          <mxGeometry relative="1" as="geometry">
            <Array as="points">
              <mxPoint x="1164" y="290" />
              <mxPoint x="1195" y="290" />
            </Array>
          </mxGeometry>
        </mxCell>
        <mxCell id="Gg4r0DaN0LE6ULb9wv_x-62" value="매칭&lt;div&gt;삭제&lt;/div&gt;" style="ellipse;whiteSpace=wrap;html=1;" parent="1" vertex="1">
          <mxGeometry x="1138.75" y="230" width="50" height="50" as="geometry" />
        </mxCell>
        <mxCell id="3iwhiVxgtKgjzXfJWk4y-47" style="edgeStyle=orthogonalEdgeStyle;rounded=0;orthogonalLoop=1;jettySize=auto;html=1;entryX=0.5;entryY=0;entryDx=0;entryDy=0;endArrow=block;endFill=0;" parent="1" source="Gg4r0DaN0LE6ULb9wv_x-63" target="Gg4r0DaN0LE6ULb9wv_x-65" edge="1">
          <mxGeometry relative="1" as="geometry">
            <Array as="points">
              <mxPoint x="1213" y="290" />
              <mxPoint x="1195" y="290" />
            </Array>
          </mxGeometry>
        </mxCell>
        <mxCell id="Gg4r0DaN0LE6ULb9wv_x-63" value="매칭&lt;div&gt;수정&lt;/div&gt;" style="ellipse;whiteSpace=wrap;html=1;" parent="1" vertex="1">
          <mxGeometry x="1188.25" y="230" width="50" height="50" as="geometry" />
        </mxCell>
        <mxCell id="3iwhiVxgtKgjzXfJWk4y-48" style="edgeStyle=orthogonalEdgeStyle;rounded=0;orthogonalLoop=1;jettySize=auto;html=1;entryX=0.5;entryY=0;entryDx=0;entryDy=0;endArrow=block;endFill=0;" parent="1" source="Gg4r0DaN0LE6ULb9wv_x-64" target="Gg4r0DaN0LE6ULb9wv_x-65" edge="1">
          <mxGeometry relative="1" as="geometry">
            <Array as="points">
              <mxPoint x="1263" y="290" />
              <mxPoint x="1195" y="290" />
            </Array>
          </mxGeometry>
        </mxCell>
        <mxCell id="Gg4r0DaN0LE6ULb9wv_x-64" value="매칭&lt;div&gt;조회&lt;/div&gt;" style="ellipse;whiteSpace=wrap;html=1;" parent="1" vertex="1">
          <mxGeometry x="1238.25" y="230" width="50" height="50" as="geometry" />
        </mxCell>
        <mxCell id="Gg4r0DaN0LE6ULb9wv_x-65" value="매칭" style="ellipse;whiteSpace=wrap;html=1;" parent="1" vertex="1">
          <mxGeometry x="1130" y="305" width="130" height="50" as="geometry" />
        </mxCell>
        <mxCell id="Gg4r0DaN0LE6ULb9wv_x-69" value="알림" style="ellipse;whiteSpace=wrap;html=1;" parent="1" vertex="1">
          <mxGeometry x="1133.5" y="1290" width="130" height="50" as="geometry" />
        </mxCell>
        <mxCell id="3iwhiVxgtKgjzXfJWk4y-33" style="edgeStyle=orthogonalEdgeStyle;rounded=0;orthogonalLoop=1;jettySize=auto;html=1;entryX=0.5;entryY=0;entryDx=0;entryDy=0;endArrow=block;endFill=0;" parent="1" source="Gg4r0DaN0LE6ULb9wv_x-71" target="Gg4r0DaN0LE6ULb9wv_x-57" edge="1">
          <mxGeometry relative="1" as="geometry">
            <Array as="points">
              <mxPoint x="606" y="970" />
              <mxPoint x="632" y="970" />
            </Array>
          </mxGeometry>
        </mxCell>
        <mxCell id="Gg4r0DaN0LE6ULb9wv_x-71" value="닉네임" style="ellipse;whiteSpace=wrap;html=1;" parent="1" vertex="1">
          <mxGeometry x="580.75" y="910" width="50" height="50" as="geometry" />
        </mxCell>
        <mxCell id="Gg4r0DaN0LE6ULb9wv_x-80" value="use" style="html=1;verticalAlign=bottom;endArrow=open;curved=0;rounded=0;exitX=1;exitY=0.3333333333333333;exitDx=0;exitDy=0;exitPerimeter=0;entryX=0.005;entryY=0.328;entryDx=0;entryDy=0;entryPerimeter=0;endFill=0;" parent="1" source="Gg4r0DaN0LE6ULb9wv_x-5" target="Gg4r0DaN0LE6ULb9wv_x-10" edge="1">
          <mxGeometry width="80" relative="1" as="geometry">
            <mxPoint x="290" y="320" as="sourcePoint" />
            <mxPoint x="370" y="320" as="targetPoint" />
          </mxGeometry>
        </mxCell>
        <mxCell id="Gg4r0DaN0LE6ULb9wv_x-81" value="use" style="html=1;verticalAlign=bottom;endArrow=open;curved=0;rounded=0;endFill=0;" parent="1" target="Gg4r0DaN0LE6ULb9wv_x-50" edge="1">
          <mxGeometry width="80" relative="1" as="geometry">
            <mxPoint x="270" y="290" as="sourcePoint" />
            <mxPoint x="417" y="326" as="targetPoint" />
          </mxGeometry>
        </mxCell>
        <mxCell id="3iwhiVxgtKgjzXfJWk4y-31" style="edgeStyle=orthogonalEdgeStyle;rounded=0;orthogonalLoop=1;jettySize=auto;html=1;entryX=0.5;entryY=0;entryDx=0;entryDy=0;endArrow=block;endFill=0;" parent="1" source="Gg4r0DaN0LE6ULb9wv_x-82" target="Gg4r0DaN0LE6ULb9wv_x-49" edge="1">
          <mxGeometry relative="1" as="geometry">
            <Array as="points">
              <mxPoint x="735" y="810" />
              <mxPoint x="655" y="810" />
            </Array>
          </mxGeometry>
        </mxCell>
        <mxCell id="Gg4r0DaN0LE6ULb9wv_x-82" value="본인 글&lt;div&gt;삭제&lt;/div&gt;" style="ellipse;whiteSpace=wrap;html=1;" parent="1" vertex="1">
          <mxGeometry x="710" y="750" width="50" height="50" as="geometry" />
        </mxCell>
        <mxCell id="Gg4r0DaN0LE6ULb9wv_x-83" value="use" style="html=1;verticalAlign=bottom;endArrow=open;curved=0;rounded=0;entryX=0;entryY=0.5;entryDx=0;entryDy=0;endFill=0;" parent="1" target="Gg4r0DaN0LE6ULb9wv_x-59" edge="1">
          <mxGeometry width="80" relative="1" as="geometry">
            <mxPoint x="270" y="770" as="sourcePoint" />
            <mxPoint x="430" y="810" as="targetPoint" />
          </mxGeometry>
        </mxCell>
        <mxCell id="3iwhiVxgtKgjzXfJWk4y-39" style="edgeStyle=orthogonalEdgeStyle;rounded=0;orthogonalLoop=1;jettySize=auto;html=1;entryX=0.5;entryY=0;entryDx=0;entryDy=0;endArrow=block;endFill=0;" parent="1" source="Gg4r0DaN0LE6ULb9wv_x-84" target="Gg4r0DaN0LE6ULb9wv_x-35" edge="1">
          <mxGeometry relative="1" as="geometry">
            <Array as="points">
              <mxPoint x="707" y="1130" />
              <mxPoint x="592" y="1130" />
            </Array>
          </mxGeometry>
        </mxCell>
        <mxCell id="Gg4r0DaN0LE6ULb9wv_x-84" value="매칭&lt;div&gt;정보&lt;/div&gt;&lt;div&gt;조회&lt;/div&gt;" style="ellipse;whiteSpace=wrap;html=1;" parent="1" vertex="1">
          <mxGeometry x="681.5" y="1070" width="50" height="50" as="geometry" />
        </mxCell>
        <mxCell id="Gg4r0DaN0LE6ULb9wv_x-85" value="과거&lt;div&gt;매칭정보&lt;/div&gt;" style="ellipse;whiteSpace=wrap;html=1;" parent="1" vertex="1">
          <mxGeometry x="806.75" y="1055" width="50" height="50" as="geometry" />
        </mxCell>
        <mxCell id="Gg4r0DaN0LE6ULb9wv_x-86" value="&lt;div&gt;현재&lt;/div&gt;&lt;div&gt;매칭신청정보&lt;/div&gt;" style="ellipse;whiteSpace=wrap;html=1;" parent="1" vertex="1">
          <mxGeometry x="806.75" y="1105" width="50" height="50" as="geometry" />
        </mxCell>
        <mxCell id="Gg4r0DaN0LE6ULb9wv_x-87" value="" style="endArrow=open;endSize=12;dashed=1;html=1;rounded=0;exitX=0;exitY=0.5;exitDx=0;exitDy=0;entryX=1;entryY=0.5;entryDx=0;entryDy=0;" parent="1" source="Gg4r0DaN0LE6ULb9wv_x-85" target="Gg4r0DaN0LE6ULb9wv_x-84" edge="1">
          <mxGeometry width="160" relative="1" as="geometry">
            <mxPoint x="740" y="880" as="sourcePoint" />
            <mxPoint x="900" y="880" as="targetPoint" />
          </mxGeometry>
        </mxCell>
        <mxCell id="86wg8HdFibVKaGJC5Y2k-31" value="&amp;lt;extend&amp;gt;" style="edgeLabel;html=1;align=center;verticalAlign=middle;resizable=0;points=[];" parent="Gg4r0DaN0LE6ULb9wv_x-87" vertex="1" connectable="0">
          <mxGeometry x="-0.009" relative="1" as="geometry">
            <mxPoint x="1" as="offset" />
          </mxGeometry>
        </mxCell>
        <mxCell id="Gg4r0DaN0LE6ULb9wv_x-88" value="" style="endArrow=open;endSize=12;dashed=1;html=1;rounded=0;exitX=0;exitY=0.5;exitDx=0;exitDy=0;entryX=1;entryY=0.5;entryDx=0;entryDy=0;" parent="1" source="Gg4r0DaN0LE6ULb9wv_x-86" target="Gg4r0DaN0LE6ULb9wv_x-84" edge="1">
          <mxGeometry width="160" relative="1" as="geometry">
            <mxPoint x="817" y="1090" as="sourcePoint" />
            <mxPoint x="742" y="1115" as="targetPoint" />
          </mxGeometry>
        </mxCell>
        <mxCell id="86wg8HdFibVKaGJC5Y2k-32" value="&amp;lt;extend&amp;gt;" style="edgeLabel;html=1;align=center;verticalAlign=middle;resizable=0;points=[];" parent="Gg4r0DaN0LE6ULb9wv_x-88" vertex="1" connectable="0">
          <mxGeometry x="-0.1889" y="3" relative="1" as="geometry">
            <mxPoint x="1" as="offset" />
          </mxGeometry>
        </mxCell>
        <mxCell id="Gg4r0DaN0LE6ULb9wv_x-89" value="" style="endArrow=open;endSize=12;dashed=1;html=1;rounded=0;exitX=0;exitY=0.5;exitDx=0;exitDy=0;entryX=1;entryY=0.5;entryDx=0;entryDy=0;" parent="1" source="Gg4r0DaN0LE6ULb9wv_x-43" target="Gg4r0DaN0LE6ULb9wv_x-40" edge="1">
          <mxGeometry width="160" relative="1" as="geometry">
            <mxPoint x="845" y="622.5" as="sourcePoint" />
            <mxPoint x="770" y="647.5" as="targetPoint" />
          </mxGeometry>
        </mxCell>
        <mxCell id="86wg8HdFibVKaGJC5Y2k-4" value="&amp;lt;include&amp;gt;" style="edgeLabel;html=1;align=center;verticalAlign=middle;resizable=0;points=[];" parent="Gg4r0DaN0LE6ULb9wv_x-89" vertex="1" connectable="0">
          <mxGeometry x="-0.1301" y="-1" relative="1" as="geometry">
            <mxPoint y="1" as="offset" />
          </mxGeometry>
        </mxCell>
        <mxCell id="Gg4r0DaN0LE6ULb9wv_x-90" value="" style="endArrow=open;endSize=12;dashed=1;html=1;rounded=0;exitX=0;exitY=0.5;exitDx=0;exitDy=0;entryX=1;entryY=0.5;entryDx=0;entryDy=0;" parent="1" source="Gg4r0DaN0LE6ULb9wv_x-43" target="Gg4r0DaN0LE6ULb9wv_x-30" edge="1">
          <mxGeometry width="160" relative="1" as="geometry">
            <mxPoint x="835" y="520" as="sourcePoint" />
            <mxPoint x="760" y="545" as="targetPoint" />
          </mxGeometry>
        </mxCell>
        <mxCell id="86wg8HdFibVKaGJC5Y2k-30" value="&amp;lt;include&amp;gt;" style="edgeLabel;html=1;align=center;verticalAlign=middle;resizable=0;points=[];" parent="Gg4r0DaN0LE6ULb9wv_x-90" vertex="1" connectable="0">
          <mxGeometry x="-0.0801" y="2" relative="1" as="geometry">
            <mxPoint y="-1" as="offset" />
          </mxGeometry>
        </mxCell>
        <mxCell id="3iwhiVxgtKgjzXfJWk4y-52" style="edgeStyle=orthogonalEdgeStyle;rounded=0;orthogonalLoop=1;jettySize=auto;html=1;entryX=0.5;entryY=0;entryDx=0;entryDy=0;endArrow=block;endFill=0;" parent="1" source="3rxa3Ml4vN22EebPkiDX-5" target="3rxa3Ml4vN22EebPkiDX-8" edge="1">
          <mxGeometry relative="1" as="geometry">
            <Array as="points">
              <mxPoint x="1139" y="650" />
              <mxPoint x="1195" y="650" />
            </Array>
          </mxGeometry>
        </mxCell>
        <mxCell id="3rxa3Ml4vN22EebPkiDX-5" value="글쓰기" style="ellipse;whiteSpace=wrap;html=1;" parent="1" vertex="1">
          <mxGeometry x="1113.5" y="585" width="50" height="50" as="geometry" />
        </mxCell>
        <mxCell id="3iwhiVxgtKgjzXfJWk4y-53" style="edgeStyle=orthogonalEdgeStyle;rounded=0;orthogonalLoop=1;jettySize=auto;html=1;entryX=0.5;entryY=0;entryDx=0;entryDy=0;endArrow=block;endFill=0;" parent="1" source="3rxa3Ml4vN22EebPkiDX-6" target="3rxa3Ml4vN22EebPkiDX-8" edge="1">
          <mxGeometry relative="1" as="geometry">
            <Array as="points">
              <mxPoint x="1189" y="650" />
              <mxPoint x="1195" y="650" />
            </Array>
          </mxGeometry>
        </mxCell>
        <mxCell id="3rxa3Ml4vN22EebPkiDX-6" value="글삭제" style="ellipse;whiteSpace=wrap;html=1;" parent="1" vertex="1">
          <mxGeometry x="1163.5" y="585" width="50" height="50" as="geometry" />
        </mxCell>
        <mxCell id="3iwhiVxgtKgjzXfJWk4y-54" style="edgeStyle=orthogonalEdgeStyle;rounded=0;orthogonalLoop=1;jettySize=auto;html=1;entryX=0.5;entryY=0;entryDx=0;entryDy=0;endArrow=block;endFill=0;" parent="1" source="3rxa3Ml4vN22EebPkiDX-7" target="3rxa3Ml4vN22EebPkiDX-8" edge="1">
          <mxGeometry relative="1" as="geometry">
            <Array as="points">
              <mxPoint x="1239" y="650" />
              <mxPoint x="1195" y="650" />
            </Array>
          </mxGeometry>
        </mxCell>
        <mxCell id="3rxa3Ml4vN22EebPkiDX-7" value="글조회" style="ellipse;whiteSpace=wrap;html=1;" parent="1" vertex="1">
          <mxGeometry x="1213.5" y="585" width="50" height="50" as="geometry" />
        </mxCell>
        <mxCell id="3rxa3Ml4vN22EebPkiDX-8" value="커뮤니티" style="ellipse;whiteSpace=wrap;html=1;" parent="1" vertex="1">
          <mxGeometry x="1130" y="660" width="130" height="50" as="geometry" />
        </mxCell>
        <mxCell id="3iwhiVxgtKgjzXfJWk4y-55" style="edgeStyle=orthogonalEdgeStyle;rounded=0;orthogonalLoop=1;jettySize=auto;html=1;entryX=0.5;entryY=0;entryDx=0;entryDy=0;endArrow=block;endFill=0;" parent="1" source="3rxa3Ml4vN22EebPkiDX-9" target="3rxa3Ml4vN22EebPkiDX-12" edge="1">
          <mxGeometry relative="1" as="geometry">
            <Array as="points">
              <mxPoint x="1118" y="820" />
              <mxPoint x="1195" y="820" />
            </Array>
          </mxGeometry>
        </mxCell>
        <mxCell id="3rxa3Ml4vN22EebPkiDX-9" value="채팅&lt;div&gt;생성&lt;/div&gt;" style="ellipse;whiteSpace=wrap;html=1;" parent="1" vertex="1">
          <mxGeometry x="1093.25" y="760" width="50" height="50" as="geometry" />
        </mxCell>
        <mxCell id="3iwhiVxgtKgjzXfJWk4y-57" style="edgeStyle=orthogonalEdgeStyle;rounded=0;orthogonalLoop=1;jettySize=auto;html=1;entryX=0.5;entryY=0;entryDx=0;entryDy=0;endArrow=block;endFill=0;" parent="1" source="3rxa3Ml4vN22EebPkiDX-10" target="3rxa3Ml4vN22EebPkiDX-12" edge="1">
          <mxGeometry relative="1" as="geometry">
            <Array as="points">
              <mxPoint x="1168" y="820" />
              <mxPoint x="1195" y="820" />
            </Array>
          </mxGeometry>
        </mxCell>
        <mxCell id="3rxa3Ml4vN22EebPkiDX-10" value="채팅&lt;div&gt;삭제&lt;/div&gt;" style="ellipse;whiteSpace=wrap;html=1;" parent="1" vertex="1">
          <mxGeometry x="1143.25" y="760" width="50" height="50" as="geometry" />
        </mxCell>
        <mxCell id="3iwhiVxgtKgjzXfJWk4y-58" style="edgeStyle=orthogonalEdgeStyle;rounded=0;orthogonalLoop=1;jettySize=auto;html=1;entryX=0.5;entryY=0;entryDx=0;entryDy=0;endArrow=block;endFill=0;" parent="1" source="3rxa3Ml4vN22EebPkiDX-11" target="3rxa3Ml4vN22EebPkiDX-12" edge="1">
          <mxGeometry relative="1" as="geometry">
            <Array as="points">
              <mxPoint x="1218" y="820" />
              <mxPoint x="1195" y="820" />
            </Array>
          </mxGeometry>
        </mxCell>
        <mxCell id="3rxa3Ml4vN22EebPkiDX-11" value="채팅&lt;div&gt;차단&lt;/div&gt;" style="ellipse;whiteSpace=wrap;html=1;" parent="1" vertex="1">
          <mxGeometry x="1193.25" y="760" width="50" height="50" as="geometry" />
        </mxCell>
        <mxCell id="3rxa3Ml4vN22EebPkiDX-12" value="채팅" style="ellipse;whiteSpace=wrap;html=1;" parent="1" vertex="1">
          <mxGeometry x="1130" y="835" width="130" height="50" as="geometry" />
        </mxCell>
        <mxCell id="86wg8HdFibVKaGJC5Y2k-1" value="명세서" style="text;html=1;align=center;verticalAlign=middle;resizable=0;points=[];autosize=1;strokeColor=none;fillColor=none;" parent="1" vertex="1">
          <mxGeometry x="460" y="370" width="60" height="30" as="geometry" />
        </mxCell>
        <mxCell id="86wg8HdFibVKaGJC5Y2k-2" value="명세서" style="text;html=1;align=center;verticalAlign=middle;resizable=0;points=[];autosize=1;strokeColor=none;fillColor=none;" parent="1" vertex="1">
          <mxGeometry x="605" y="720" width="60" height="30" as="geometry" />
        </mxCell>
        <mxCell id="86wg8HdFibVKaGJC5Y2k-3" value="" style="endArrow=open;endSize=12;dashed=1;html=1;rounded=0;exitX=0;exitY=0.5;exitDx=0;exitDy=0;entryX=0.975;entryY=0.348;entryDx=0;entryDy=0;entryPerimeter=0;" parent="1" source="Gg4r0DaN0LE6ULb9wv_x-40" target="Gg4r0DaN0LE6ULb9wv_x-59" edge="1">
          <mxGeometry width="160" relative="1" as="geometry">
            <mxPoint x="560" y="780" as="sourcePoint" />
            <mxPoint x="367" y="685" as="targetPoint" />
          </mxGeometry>
        </mxCell>
        <mxCell id="86wg8HdFibVKaGJC5Y2k-42" value="&amp;lt;include&amp;gt;" style="edgeLabel;html=1;align=center;verticalAlign=middle;resizable=0;points=[];" parent="86wg8HdFibVKaGJC5Y2k-3" vertex="1" connectable="0">
          <mxGeometry x="-0.0076" relative="1" as="geometry">
            <mxPoint x="-1" as="offset" />
          </mxGeometry>
        </mxCell>
        <mxCell id="86wg8HdFibVKaGJC5Y2k-6" value="신고" style="ellipse;whiteSpace=wrap;html=1;" parent="1" vertex="1">
          <mxGeometry x="806.75" y="935" width="50" height="50" as="geometry" />
        </mxCell>
        <mxCell id="3iwhiVxgtKgjzXfJWk4y-25" style="edgeStyle=orthogonalEdgeStyle;rounded=0;orthogonalLoop=1;jettySize=auto;html=1;entryX=0.5;entryY=0;entryDx=0;entryDy=0;endArrow=block;endFill=0;" parent="1" source="86wg8HdFibVKaGJC5Y2k-7" target="Gg4r0DaN0LE6ULb9wv_x-40" edge="1">
          <mxGeometry relative="1" as="geometry">
            <Array as="points">
              <mxPoint x="756" y="620" />
              <mxPoint x="632" y="620" />
            </Array>
          </mxGeometry>
        </mxCell>
        <mxCell id="86wg8HdFibVKaGJC5Y2k-7" value="알림" style="ellipse;whiteSpace=wrap;html=1;" parent="1" vertex="1">
          <mxGeometry x="731.5" y="560" width="50" height="50" as="geometry" />
        </mxCell>
        <mxCell id="3iwhiVxgtKgjzXfJWk4y-18" style="edgeStyle=orthogonalEdgeStyle;rounded=0;orthogonalLoop=1;jettySize=auto;html=1;entryX=0.5;entryY=0;entryDx=0;entryDy=0;endArrow=block;endFill=0;" parent="1" source="86wg8HdFibVKaGJC5Y2k-8" target="Gg4r0DaN0LE6ULb9wv_x-30" edge="1">
          <mxGeometry relative="1" as="geometry">
            <Array as="points">
              <mxPoint x="695" y="460" />
              <mxPoint x="595" y="460" />
            </Array>
          </mxGeometry>
        </mxCell>
        <mxCell id="86wg8HdFibVKaGJC5Y2k-8" value="알림" style="ellipse;whiteSpace=wrap;html=1;" parent="1" vertex="1">
          <mxGeometry x="670" y="400" width="50" height="50" as="geometry" />
        </mxCell>
        <mxCell id="3iwhiVxgtKgjzXfJWk4y-69" style="edgeStyle=orthogonalEdgeStyle;rounded=0;orthogonalLoop=1;jettySize=auto;html=1;entryX=0.5;entryY=0;entryDx=0;entryDy=0;endArrow=block;endFill=0;" parent="1" source="86wg8HdFibVKaGJC5Y2k-10" target="86wg8HdFibVKaGJC5Y2k-13" edge="1">
          <mxGeometry relative="1" as="geometry">
            <Array as="points">
              <mxPoint x="1085" y="990" />
              <mxPoint x="1235" y="990" />
            </Array>
          </mxGeometry>
        </mxCell>
        <mxCell id="86wg8HdFibVKaGJC5Y2k-10" value="회원정보&lt;div&gt;수정&lt;/div&gt;" style="ellipse;whiteSpace=wrap;html=1;" parent="1" vertex="1">
          <mxGeometry x="1020" y="930" width="50" height="50" as="geometry" />
        </mxCell>
        <mxCell id="3iwhiVxgtKgjzXfJWk4y-67" style="edgeStyle=orthogonalEdgeStyle;rounded=0;orthogonalLoop=1;jettySize=auto;html=1;entryX=0.5;entryY=0;entryDx=0;entryDy=0;endArrow=block;endFill=0;" parent="1" source="86wg8HdFibVKaGJC5Y2k-11" target="86wg8HdFibVKaGJC5Y2k-13" edge="1">
          <mxGeometry relative="1" as="geometry">
            <Array as="points">
              <mxPoint x="1095" y="990" />
              <mxPoint x="1195" y="990" />
            </Array>
          </mxGeometry>
        </mxCell>
        <mxCell id="86wg8HdFibVKaGJC5Y2k-11" value="회원정보&lt;div&gt;조회&lt;/div&gt;" style="ellipse;whiteSpace=wrap;html=1;" parent="1" vertex="1">
          <mxGeometry x="1070" y="930" width="50" height="50" as="geometry" />
        </mxCell>
        <mxCell id="3iwhiVxgtKgjzXfJWk4y-64" style="edgeStyle=orthogonalEdgeStyle;rounded=0;orthogonalLoop=1;jettySize=auto;html=1;entryX=0.5;entryY=0;entryDx=0;entryDy=0;endArrow=block;endFill=0;" parent="1" source="86wg8HdFibVKaGJC5Y2k-12" target="86wg8HdFibVKaGJC5Y2k-13" edge="1">
          <mxGeometry relative="1" as="geometry">
            <Array as="points">
              <mxPoint x="1145" y="990" />
              <mxPoint x="1195" y="990" />
            </Array>
          </mxGeometry>
        </mxCell>
        <mxCell id="86wg8HdFibVKaGJC5Y2k-12" value="회원정보&lt;div&gt;삭제&lt;/div&gt;" style="ellipse;whiteSpace=wrap;html=1;" parent="1" vertex="1">
          <mxGeometry x="1120" y="930" width="50" height="50" as="geometry" />
        </mxCell>
        <mxCell id="86wg8HdFibVKaGJC5Y2k-13" value="회원관리" style="ellipse;whiteSpace=wrap;html=1;" parent="1" vertex="1">
          <mxGeometry x="1130" y="1000" width="130" height="50" as="geometry" />
        </mxCell>
        <mxCell id="3iwhiVxgtKgjzXfJWk4y-72" style="edgeStyle=orthogonalEdgeStyle;rounded=0;orthogonalLoop=1;jettySize=auto;html=1;entryX=0.5;entryY=0;entryDx=0;entryDy=0;endArrow=block;endFill=0;" parent="1" source="86wg8HdFibVKaGJC5Y2k-14" target="86wg8HdFibVKaGJC5Y2k-17" edge="1">
          <mxGeometry relative="1" as="geometry">
            <Array as="points">
              <mxPoint x="1139" y="1140" />
              <mxPoint x="1195" y="1140" />
            </Array>
          </mxGeometry>
        </mxCell>
        <mxCell id="86wg8HdFibVKaGJC5Y2k-14" value="회원수" style="ellipse;whiteSpace=wrap;html=1;" parent="1" vertex="1">
          <mxGeometry x="1113.5" y="1080" width="50" height="50" as="geometry" />
        </mxCell>
        <mxCell id="3iwhiVxgtKgjzXfJWk4y-71" style="edgeStyle=orthogonalEdgeStyle;rounded=0;orthogonalLoop=1;jettySize=auto;html=1;entryX=0.5;entryY=0;entryDx=0;entryDy=0;endArrow=block;endFill=0;" parent="1" source="86wg8HdFibVKaGJC5Y2k-15" target="86wg8HdFibVKaGJC5Y2k-17" edge="1">
          <mxGeometry relative="1" as="geometry">
            <Array as="points">
              <mxPoint x="1189" y="1140" />
              <mxPoint x="1195" y="1140" />
            </Array>
          </mxGeometry>
        </mxCell>
        <mxCell id="86wg8HdFibVKaGJC5Y2k-15" value="매칭&lt;div&gt;건수&lt;/div&gt;" style="ellipse;whiteSpace=wrap;html=1;" parent="1" vertex="1">
          <mxGeometry x="1163.5" y="1080" width="50" height="50" as="geometry" />
        </mxCell>
        <mxCell id="3iwhiVxgtKgjzXfJWk4y-73" style="edgeStyle=orthogonalEdgeStyle;rounded=0;orthogonalLoop=1;jettySize=auto;html=1;entryX=0.5;entryY=0;entryDx=0;entryDy=0;endArrow=block;endFill=0;" parent="1" source="86wg8HdFibVKaGJC5Y2k-16" target="86wg8HdFibVKaGJC5Y2k-17" edge="1">
          <mxGeometry relative="1" as="geometry">
            <Array as="points">
              <mxPoint x="1239" y="1140" />
              <mxPoint x="1195" y="1140" />
            </Array>
          </mxGeometry>
        </mxCell>
        <mxCell id="86wg8HdFibVKaGJC5Y2k-16" value="연령대" style="ellipse;whiteSpace=wrap;html=1;" parent="1" vertex="1">
          <mxGeometry x="1213.5" y="1080" width="50" height="50" as="geometry" />
        </mxCell>
        <mxCell id="86wg8HdFibVKaGJC5Y2k-17" value="통계 확인" style="ellipse;whiteSpace=wrap;html=1;" parent="1" vertex="1">
          <mxGeometry x="1130" y="1155" width="130" height="50" as="geometry" />
        </mxCell>
        <mxCell id="3iwhiVxgtKgjzXfJWk4y-45" style="edgeStyle=orthogonalEdgeStyle;rounded=0;orthogonalLoop=1;jettySize=auto;html=1;entryX=0.5;entryY=0;entryDx=0;entryDy=0;endArrow=block;endFill=0;" parent="1" source="86wg8HdFibVKaGJC5Y2k-18" target="Gg4r0DaN0LE6ULb9wv_x-65" edge="1">
          <mxGeometry relative="1" as="geometry">
            <Array as="points">
              <mxPoint x="1114" y="290" />
              <mxPoint x="1195" y="290" />
            </Array>
          </mxGeometry>
        </mxCell>
        <mxCell id="86wg8HdFibVKaGJC5Y2k-18" value="매칭&lt;div&gt;개입&lt;/div&gt;" style="ellipse;whiteSpace=wrap;html=1;" parent="1" vertex="1">
          <mxGeometry x="1088.75" y="230" width="50" height="50" as="geometry" />
        </mxCell>
        <mxCell id="3iwhiVxgtKgjzXfJWk4y-44" style="edgeStyle=orthogonalEdgeStyle;rounded=0;orthogonalLoop=1;jettySize=auto;html=1;entryX=0.5;entryY=0;entryDx=0;entryDy=0;" parent="1" source="86wg8HdFibVKaGJC5Y2k-20" target="Gg4r0DaN0LE6ULb9wv_x-43" edge="1">
          <mxGeometry relative="1" as="geometry">
            <Array as="points">
              <mxPoint x="1026.62" y="550" />
              <mxPoint x="923.62" y="550" />
            </Array>
          </mxGeometry>
        </mxCell>
        <mxCell id="86wg8HdFibVKaGJC5Y2k-20" value="알림" style="ellipse;whiteSpace=wrap;html=1;" parent="1" vertex="1">
          <mxGeometry x="1001.62" y="485" width="50" height="50" as="geometry" />
        </mxCell>
        <mxCell id="86wg8HdFibVKaGJC5Y2k-21" value="use" style="html=1;verticalAlign=bottom;endArrow=open;curved=0;rounded=0;entryX=0;entryY=0.5;entryDx=0;entryDy=0;endFill=0;exitX=1;exitY=0.3333333333333333;exitDx=0;exitDy=0;exitPerimeter=0;" parent="1" source="Gg4r0DaN0LE6ULb9wv_x-7" target="Gg4r0DaN0LE6ULb9wv_x-10" edge="1">
          <mxGeometry width="80" relative="1" as="geometry">
            <mxPoint x="280" y="780" as="sourcePoint" />
            <mxPoint x="347" y="805" as="targetPoint" />
          </mxGeometry>
        </mxCell>
        <mxCell id="3iwhiVxgtKgjzXfJWk4y-50" style="edgeStyle=orthogonalEdgeStyle;rounded=0;orthogonalLoop=1;jettySize=auto;html=1;entryX=0.5;entryY=0;entryDx=0;entryDy=0;endArrow=block;endFill=0;" parent="1" source="3rxa3Ml4vN22EebPkiDX-2" target="3rxa3Ml4vN22EebPkiDX-4" edge="1">
          <mxGeometry relative="1" as="geometry">
            <Array as="points">
              <mxPoint x="1189" y="460" />
              <mxPoint x="1195" y="460" />
            </Array>
          </mxGeometry>
        </mxCell>
        <mxCell id="3rxa3Ml4vN22EebPkiDX-2" value="친구목록&lt;div&gt;수정&lt;/div&gt;" style="ellipse;whiteSpace=wrap;html=1;" parent="1" vertex="1">
          <mxGeometry x="1163.5" y="400" width="50" height="50" as="geometry" />
        </mxCell>
        <mxCell id="3iwhiVxgtKgjzXfJWk4y-49" style="edgeStyle=orthogonalEdgeStyle;rounded=0;orthogonalLoop=1;jettySize=auto;html=1;endArrow=block;endFill=0;" parent="1" source="3rxa3Ml4vN22EebPkiDX-1" target="3rxa3Ml4vN22EebPkiDX-4" edge="1">
          <mxGeometry relative="1" as="geometry">
            <Array as="points">
              <mxPoint x="1139" y="460" />
              <mxPoint x="1195" y="460" />
            </Array>
          </mxGeometry>
        </mxCell>
        <mxCell id="3rxa3Ml4vN22EebPkiDX-1" value="친구목록&lt;div&gt;조회&lt;/div&gt;" style="ellipse;whiteSpace=wrap;html=1;" parent="1" vertex="1">
          <mxGeometry x="1113.5" y="400" width="50" height="50" as="geometry" />
        </mxCell>
        <mxCell id="3iwhiVxgtKgjzXfJWk4y-51" style="edgeStyle=orthogonalEdgeStyle;rounded=0;orthogonalLoop=1;jettySize=auto;html=1;entryX=0.5;entryY=0;entryDx=0;entryDy=0;endArrow=block;endFill=0;" parent="1" source="3rxa3Ml4vN22EebPkiDX-3" target="3rxa3Ml4vN22EebPkiDX-4" edge="1">
          <mxGeometry relative="1" as="geometry">
            <Array as="points">
              <mxPoint x="1239" y="460" />
              <mxPoint x="1195" y="460" />
            </Array>
          </mxGeometry>
        </mxCell>
        <mxCell id="3rxa3Ml4vN22EebPkiDX-3" value="친구&lt;div&gt;삭제&lt;/div&gt;" style="ellipse;whiteSpace=wrap;html=1;" parent="1" vertex="1">
          <mxGeometry x="1213.5" y="400" width="50" height="50" as="geometry" />
        </mxCell>
        <mxCell id="3rxa3Ml4vN22EebPkiDX-4" value="친구" style="ellipse;whiteSpace=wrap;html=1;" parent="1" vertex="1">
          <mxGeometry x="1130" y="475" width="130" height="50" as="geometry" />
        </mxCell>
        <mxCell id="3iwhiVxgtKgjzXfJWk4y-60" style="edgeStyle=orthogonalEdgeStyle;rounded=0;orthogonalLoop=1;jettySize=auto;html=1;entryX=0.5;entryY=0;entryDx=0;entryDy=0;endArrow=block;endFill=0;" parent="1" source="86wg8HdFibVKaGJC5Y2k-23" target="3rxa3Ml4vN22EebPkiDX-12" edge="1">
          <mxGeometry relative="1" as="geometry">
            <Array as="points">
              <mxPoint x="1272" y="820" />
              <mxPoint x="1195" y="820" />
            </Array>
          </mxGeometry>
        </mxCell>
        <mxCell id="86wg8HdFibVKaGJC5Y2k-23" value="채팅내용&lt;div&gt;조회&lt;/div&gt;" style="ellipse;whiteSpace=wrap;html=1;" parent="1" vertex="1">
          <mxGeometry x="1246.75" y="760" width="50" height="50" as="geometry" />
        </mxCell>
        <mxCell id="3iwhiVxgtKgjzXfJWk4y-61" style="edgeStyle=orthogonalEdgeStyle;rounded=0;orthogonalLoop=1;jettySize=auto;html=1;entryX=0.5;entryY=0;entryDx=0;entryDy=0;endArrow=block;endFill=0;" parent="1" source="86wg8HdFibVKaGJC5Y2k-24" target="86wg8HdFibVKaGJC5Y2k-13" edge="1">
          <mxGeometry relative="1" as="geometry" />
        </mxCell>
        <mxCell id="86wg8HdFibVKaGJC5Y2k-24" value="매너점수&lt;div&gt;조회&lt;/div&gt;" style="ellipse;whiteSpace=wrap;html=1;" parent="1" vertex="1">
          <mxGeometry x="1170" y="930" width="50" height="50" as="geometry" />
        </mxCell>
        <mxCell id="3iwhiVxgtKgjzXfJWk4y-63" style="edgeStyle=orthogonalEdgeStyle;rounded=0;orthogonalLoop=1;jettySize=auto;html=1;entryX=0.5;entryY=0;entryDx=0;entryDy=0;endArrow=block;endFill=0;" parent="1" source="86wg8HdFibVKaGJC5Y2k-25" target="86wg8HdFibVKaGJC5Y2k-13" edge="1">
          <mxGeometry relative="1" as="geometry">
            <Array as="points">
              <mxPoint x="1245" y="990" />
              <mxPoint x="1195" y="990" />
            </Array>
          </mxGeometry>
        </mxCell>
        <mxCell id="86wg8HdFibVKaGJC5Y2k-25" value="매너점수&lt;div&gt;수정&lt;/div&gt;" style="ellipse;whiteSpace=wrap;html=1;" parent="1" vertex="1">
          <mxGeometry x="1220" y="930" width="50" height="50" as="geometry" />
        </mxCell>
        <mxCell id="86wg8HdFibVKaGJC5Y2k-29" value="신고 조회" style="ellipse;whiteSpace=wrap;html=1;" parent="1" vertex="1">
          <mxGeometry x="1130" y="1220" width="130" height="50" as="geometry" />
        </mxCell>
        <mxCell id="86wg8HdFibVKaGJC5Y2k-33" value="" style="endArrow=open;endSize=12;dashed=1;html=1;rounded=0;exitX=0;exitY=0.5;exitDx=0;exitDy=0;entryX=1;entryY=0.5;entryDx=0;entryDy=0;" parent="1" source="86wg8HdFibVKaGJC5Y2k-6" target="Gg4r0DaN0LE6ULb9wv_x-57" edge="1">
          <mxGeometry width="160" relative="1" as="geometry">
            <mxPoint x="940" y="920" as="sourcePoint" />
            <mxPoint x="720" y="985" as="targetPoint" />
          </mxGeometry>
        </mxCell>
        <mxCell id="86wg8HdFibVKaGJC5Y2k-34" value="&amp;lt;extend&amp;gt;" style="edgeLabel;html=1;align=center;verticalAlign=middle;resizable=0;points=[];" parent="86wg8HdFibVKaGJC5Y2k-33" vertex="1" connectable="0">
          <mxGeometry x="-0.1301" y="-1" relative="1" as="geometry">
            <mxPoint y="1" as="offset" />
          </mxGeometry>
        </mxCell>
        <mxCell id="86wg8HdFibVKaGJC5Y2k-35" value="" style="endArrow=open;endSize=12;dashed=1;html=1;rounded=0;exitX=0;exitY=0.5;exitDx=0;exitDy=0;entryX=1;entryY=0.5;entryDx=0;entryDy=0;" parent="1" source="Gg4r0DaN0LE6ULb9wv_x-57" target="Gg4r0DaN0LE6ULb9wv_x-59" edge="1">
          <mxGeometry width="160" relative="1" as="geometry">
            <mxPoint x="566.5" y="927.5" as="sourcePoint" />
            <mxPoint x="346.5" y="992.5" as="targetPoint" />
          </mxGeometry>
        </mxCell>
        <mxCell id="86wg8HdFibVKaGJC5Y2k-36" value="&amp;lt;include&amp;gt;" style="edgeLabel;html=1;align=center;verticalAlign=middle;resizable=0;points=[];" parent="86wg8HdFibVKaGJC5Y2k-35" vertex="1" connectable="0">
          <mxGeometry x="-0.1301" y="-1" relative="1" as="geometry">
            <mxPoint y="1" as="offset" />
          </mxGeometry>
        </mxCell>
        <mxCell id="86wg8HdFibVKaGJC5Y2k-37" value="" style="endArrow=open;endSize=12;dashed=1;html=1;rounded=0;exitX=0;exitY=0.5;exitDx=0;exitDy=0;entryX=1;entryY=0.5;entryDx=0;entryDy=0;" parent="1" source="Gg4r0DaN0LE6ULb9wv_x-49" target="Gg4r0DaN0LE6ULb9wv_x-59" edge="1">
          <mxGeometry width="160" relative="1" as="geometry">
            <mxPoint x="500" y="850" as="sourcePoint" />
            <mxPoint x="280" y="915" as="targetPoint" />
          </mxGeometry>
        </mxCell>
        <mxCell id="86wg8HdFibVKaGJC5Y2k-38" value="&amp;lt;include&amp;gt;" style="edgeLabel;html=1;align=center;verticalAlign=middle;resizable=0;points=[];" parent="86wg8HdFibVKaGJC5Y2k-37" vertex="1" connectable="0">
          <mxGeometry x="-0.1301" y="-1" relative="1" as="geometry">
            <mxPoint y="1" as="offset" />
          </mxGeometry>
        </mxCell>
        <mxCell id="86wg8HdFibVKaGJC5Y2k-39" value="" style="endArrow=open;endSize=12;dashed=1;html=1;rounded=0;exitX=0;exitY=0.5;exitDx=0;exitDy=0;entryX=1;entryY=1;entryDx=0;entryDy=0;" parent="1" source="Gg4r0DaN0LE6ULb9wv_x-35" target="Gg4r0DaN0LE6ULb9wv_x-59" edge="1">
          <mxGeometry width="160" relative="1" as="geometry">
            <mxPoint x="500" y="970" as="sourcePoint" />
            <mxPoint x="280" y="1035" as="targetPoint" />
          </mxGeometry>
        </mxCell>
        <mxCell id="86wg8HdFibVKaGJC5Y2k-40" value="&amp;lt;include&amp;gt;" style="edgeLabel;html=1;align=center;verticalAlign=middle;resizable=0;points=[];" parent="86wg8HdFibVKaGJC5Y2k-39" vertex="1" connectable="0">
          <mxGeometry x="-0.1301" y="-1" relative="1" as="geometry">
            <mxPoint y="1" as="offset" />
          </mxGeometry>
        </mxCell>
        <mxCell id="86wg8HdFibVKaGJC5Y2k-43" value="" style="endArrow=open;endSize=12;dashed=1;html=1;rounded=0;exitX=0;exitY=1;exitDx=0;exitDy=0;entryX=1;entryY=0.5;entryDx=0;entryDy=0;" parent="1" source="Gg4r0DaN0LE6ULb9wv_x-55" target="Gg4r0DaN0LE6ULb9wv_x-30" edge="1">
          <mxGeometry width="160" relative="1" as="geometry">
            <mxPoint x="850" y="460" as="sourcePoint" />
            <mxPoint x="740" y="510" as="targetPoint" />
          </mxGeometry>
        </mxCell>
        <mxCell id="86wg8HdFibVKaGJC5Y2k-44" value="&amp;lt;extend&amp;gt;" style="edgeLabel;html=1;align=center;verticalAlign=middle;resizable=0;points=[];" parent="86wg8HdFibVKaGJC5Y2k-43" vertex="1" connectable="0">
          <mxGeometry x="-0.1301" y="-1" relative="1" as="geometry">
            <mxPoint y="1" as="offset" />
          </mxGeometry>
        </mxCell>
        <mxCell id="3iwhiVxgtKgjzXfJWk4y-1" value="관리자" style="shape=umlActor;verticalLabelPosition=bottom;verticalAlign=top;html=1;" parent="1" vertex="1">
          <mxGeometry x="1580" y="750" width="30" height="60" as="geometry" />
        </mxCell>
        <mxCell id="3iwhiVxgtKgjzXfJWk4y-4" value="&amp;lt;include&amp;gt;" style="html=1;verticalAlign=bottom;endArrow=none;curved=0;rounded=0;entryX=1;entryY=0.5;entryDx=0;entryDy=0;endFill=0;exitX=0;exitY=0.5;exitDx=0;exitDy=0;dashed=1;startArrow=open;startFill=0;" parent="1" source="GKwbgzHgTDgeVdDkBGOO-1" target="Gg4r0DaN0LE6ULb9wv_x-65" edge="1">
          <mxGeometry width="80" relative="1" as="geometry">
            <mxPoint x="1400" y="835" as="sourcePoint" />
            <mxPoint x="1540" y="390" as="targetPoint" />
          </mxGeometry>
        </mxCell>
        <mxCell id="3iwhiVxgtKgjzXfJWk4y-5" value="&amp;lt;include&amp;gt;" style="html=1;verticalAlign=bottom;endArrow=none;curved=0;rounded=0;endFill=0;entryX=0.988;entryY=0.639;entryDx=0;entryDy=0;entryPerimeter=0;exitX=0;exitY=0.5;exitDx=0;exitDy=0;dashed=1;startArrow=open;startFill=0;" parent="1" source="GKwbgzHgTDgeVdDkBGOO-1" target="3rxa3Ml4vN22EebPkiDX-4" edge="1">
          <mxGeometry width="80" relative="1" as="geometry">
            <mxPoint x="1580" y="770" as="sourcePoint" />
            <mxPoint x="1440" y="510" as="targetPoint" />
          </mxGeometry>
        </mxCell>
        <mxCell id="3iwhiVxgtKgjzXfJWk4y-6" value="&amp;lt;include&amp;gt;" style="html=1;verticalAlign=bottom;endArrow=none;curved=0;rounded=0;entryX=1;entryY=0.5;entryDx=0;entryDy=0;endFill=0;exitX=0;exitY=0.5;exitDx=0;exitDy=0;dashed=1;startArrow=open;startFill=0;" parent="1" source="GKwbgzHgTDgeVdDkBGOO-1" target="3rxa3Ml4vN22EebPkiDX-8" edge="1">
          <mxGeometry width="80" relative="1" as="geometry">
            <mxPoint x="1600" y="790" as="sourcePoint" />
            <mxPoint x="1450" y="350" as="targetPoint" />
          </mxGeometry>
        </mxCell>
        <mxCell id="3iwhiVxgtKgjzXfJWk4y-7" value="&amp;lt;include&amp;gt;" style="html=1;verticalAlign=bottom;endArrow=none;curved=0;rounded=0;entryX=1;entryY=0.5;entryDx=0;entryDy=0;endFill=0;exitX=0;exitY=0.5;exitDx=0;exitDy=0;dashed=1;startArrow=open;startFill=0;" parent="1" source="GKwbgzHgTDgeVdDkBGOO-1" target="3rxa3Ml4vN22EebPkiDX-12" edge="1">
          <mxGeometry width="80" relative="1" as="geometry">
            <mxPoint x="1590" y="780" as="sourcePoint" />
            <mxPoint x="1440" y="695" as="targetPoint" />
          </mxGeometry>
        </mxCell>
        <mxCell id="3iwhiVxgtKgjzXfJWk4y-8" value="&amp;lt;include&amp;gt;" style="html=1;verticalAlign=bottom;endArrow=none;curved=0;rounded=0;entryX=1;entryY=0.5;entryDx=0;entryDy=0;endFill=0;exitX=0;exitY=0.5;exitDx=0;exitDy=0;dashed=1;startArrow=open;startFill=0;" parent="1" source="GKwbgzHgTDgeVdDkBGOO-1" target="86wg8HdFibVKaGJC5Y2k-13" edge="1">
          <mxGeometry width="80" relative="1" as="geometry">
            <mxPoint x="1600" y="790" as="sourcePoint" />
            <mxPoint x="1450" y="705" as="targetPoint" />
          </mxGeometry>
        </mxCell>
        <mxCell id="3iwhiVxgtKgjzXfJWk4y-9" value="&amp;lt;include&amp;gt;" style="html=1;verticalAlign=bottom;endArrow=none;curved=0;rounded=0;entryX=1;entryY=0.5;entryDx=0;entryDy=0;endFill=0;exitX=0;exitY=0.5;exitDx=0;exitDy=0;dashed=1;startArrow=open;startFill=0;" parent="1" source="GKwbgzHgTDgeVdDkBGOO-1" target="86wg8HdFibVKaGJC5Y2k-17" edge="1">
          <mxGeometry width="80" relative="1" as="geometry">
            <mxPoint x="1610" y="800" as="sourcePoint" />
            <mxPoint x="1460" y="715" as="targetPoint" />
          </mxGeometry>
        </mxCell>
        <mxCell id="3iwhiVxgtKgjzXfJWk4y-10" value="&amp;lt;include&amp;gt;" style="html=1;verticalAlign=bottom;endArrow=none;curved=0;rounded=0;entryX=1;entryY=0.5;entryDx=0;entryDy=0;endFill=0;exitX=0;exitY=0.5;exitDx=0;exitDy=0;dashed=1;startArrow=open;startFill=0;" parent="1" source="GKwbgzHgTDgeVdDkBGOO-1" target="86wg8HdFibVKaGJC5Y2k-29" edge="1">
          <mxGeometry width="80" relative="1" as="geometry">
            <mxPoint x="1620" y="810" as="sourcePoint" />
            <mxPoint x="1470" y="725" as="targetPoint" />
          </mxGeometry>
        </mxCell>
        <mxCell id="GKwbgzHgTDgeVdDkBGOO-6" value="&amp;lt;include&amp;gt;" style="edgeLabel;html=1;align=center;verticalAlign=middle;resizable=0;points=[];" parent="3iwhiVxgtKgjzXfJWk4y-10" vertex="1" connectable="0">
          <mxGeometry x="0.0913" y="13" relative="1" as="geometry">
            <mxPoint as="offset" />
          </mxGeometry>
        </mxCell>
        <mxCell id="3iwhiVxgtKgjzXfJWk4y-11" value="use" style="html=1;verticalAlign=bottom;endArrow=none;curved=0;rounded=0;endFill=0;exitX=0;exitY=0.5;exitDx=0;exitDy=0;entryX=1;entryY=0.5;entryDx=0;entryDy=0;dashed=1;startArrow=open;startFill=0;" parent="1" source="GKwbgzHgTDgeVdDkBGOO-1" target="Gg4r0DaN0LE6ULb9wv_x-69" edge="1">
          <mxGeometry width="80" relative="1" as="geometry">
            <mxPoint x="1630" y="820" as="sourcePoint" />
            <mxPoint x="1480" y="735" as="targetPoint" />
          </mxGeometry>
        </mxCell>
        <mxCell id="3iwhiVxgtKgjzXfJWk4y-12" style="edgeStyle=orthogonalEdgeStyle;rounded=0;orthogonalLoop=1;jettySize=auto;html=1;entryX=0.5;entryY=0;entryDx=0;entryDy=0;endArrow=block;endFill=0;" parent="1" source="Gg4r0DaN0LE6ULb9wv_x-16" target="Gg4r0DaN0LE6ULb9wv_x-10" edge="1">
          <mxGeometry relative="1" as="geometry">
            <Array as="points">
              <mxPoint x="442" y="290" />
              <mxPoint x="472" y="290" />
            </Array>
          </mxGeometry>
        </mxCell>
        <mxCell id="GKwbgzHgTDgeVdDkBGOO-2" value="" style="html=1;verticalAlign=bottom;endArrow=open;curved=0;rounded=0;entryX=1;entryY=0.5;entryDx=0;entryDy=0;endFill=0;exitX=0;exitY=0.3333333333333333;exitDx=0;exitDy=0;exitPerimeter=0;" parent="1" source="3iwhiVxgtKgjzXfJWk4y-1" target="GKwbgzHgTDgeVdDkBGOO-1" edge="1">
          <mxGeometry width="80" relative="1" as="geometry">
            <mxPoint x="1580" y="770" as="sourcePoint" />
            <mxPoint x="1228" y="860" as="targetPoint" />
          </mxGeometry>
        </mxCell>
        <mxCell id="GKwbgzHgTDgeVdDkBGOO-4" value="use" style="edgeLabel;html=1;align=center;verticalAlign=middle;resizable=0;points=[];" parent="GKwbgzHgTDgeVdDkBGOO-2" vertex="1" connectable="0">
          <mxGeometry x="-0.2221" y="2" relative="1" as="geometry">
            <mxPoint as="offset" />
          </mxGeometry>
        </mxCell>
        <mxCell id="GKwbgzHgTDgeVdDkBGOO-1" value="&lt;div&gt;관리자&lt;/div&gt;로그인" style="ellipse;whiteSpace=wrap;html=1;" parent="1" vertex="1">
          <mxGeometry x="1390" y="770" width="130" height="50" as="geometry" />
        </mxCell>
      </root>
    </mxGraphModel>
  </diagram>
  <diagram id="wc3ZEN1yxOvuZnzG7YM4" name="명세서">
    <mxGraphModel dx="1010" dy="2028" grid="0" gridSize="10" guides="1" tooltips="1" connect="1" arrows="1" fold="1" page="0" pageScale="1" pageWidth="827" pageHeight="1169" math="0" shadow="0">
      <root>
        <mxCell id="0" />
        <mxCell id="1" parent="0" />
        <mxCell id="Gg7BF56Pxi4QzcPZmrgj-1" value="&lt;div&gt;&amp;lt;&amp;lt;유스케이스 명세서&amp;gt;&amp;gt;&lt;/div&gt;유스케이스명 : 매칭 등록" style="shape=table;startSize=40;container=1;collapsible=1;childLayout=tableLayout;fixedRows=1;rowLines=0;fontStyle=1;align=center;resizeLast=1;html=1;" parent="1" vertex="1">
          <mxGeometry x="60" y="-1110" width="544.75" height="690" as="geometry" />
        </mxCell>
        <mxCell id="Gg7BF56Pxi4QzcPZmrgj-2" value="" style="shape=tableRow;horizontal=0;startSize=0;swimlaneHead=0;swimlaneBody=0;fillColor=none;collapsible=0;dropTarget=0;points=[[0,0.5],[1,0.5]];portConstraint=eastwest;top=0;left=0;right=0;bottom=1;strokeColor=default;verticalAlign=middle;fontStyle=0" parent="Gg7BF56Pxi4QzcPZmrgj-1" vertex="1">
          <mxGeometry y="40" width="544.75" height="30" as="geometry" />
        </mxCell>
        <mxCell id="Gg7BF56Pxi4QzcPZmrgj-3" value="목표" style="shape=partialRectangle;connectable=0;fillColor=none;top=0;left=0;bottom=0;right=0;fontStyle=1;overflow=hidden;whiteSpace=wrap;html=1;" parent="Gg7BF56Pxi4QzcPZmrgj-2" vertex="1">
          <mxGeometry width="60" height="30" as="geometry">
            <mxRectangle width="60" height="30" as="alternateBounds" />
          </mxGeometry>
        </mxCell>
        <mxCell id="Gg7BF56Pxi4QzcPZmrgj-4" value="&lt;span style=&quot;font-weight: 400; text-wrap: nowrap;&quot;&gt;회원이 회원가입을 할 수 있도록 시스템을 통해 회원가입 절차를 완료한다&lt;/span&gt;" style="shape=partialRectangle;connectable=0;fillColor=none;top=0;left=0;bottom=0;right=0;align=left;spacingLeft=6;fontStyle=1;overflow=hidden;whiteSpace=wrap;html=1;" parent="Gg7BF56Pxi4QzcPZmrgj-2" vertex="1">
          <mxGeometry x="60" width="484.75" height="30" as="geometry">
            <mxRectangle width="484.75" height="30" as="alternateBounds" />
          </mxGeometry>
        </mxCell>
        <mxCell id="Gg7BF56Pxi4QzcPZmrgj-5" value="" style="shape=tableRow;horizontal=0;startSize=0;swimlaneHead=0;swimlaneBody=0;fillColor=none;collapsible=0;dropTarget=0;points=[[0,0.5],[1,0.5]];portConstraint=eastwest;top=0;left=0;right=0;bottom=1;" parent="Gg7BF56Pxi4QzcPZmrgj-1" vertex="1">
          <mxGeometry y="70" width="544.75" height="30" as="geometry" />
        </mxCell>
        <mxCell id="Gg7BF56Pxi4QzcPZmrgj-6" value="엑터" style="shape=partialRectangle;connectable=0;fillColor=none;top=0;left=0;bottom=0;right=0;fontStyle=1;overflow=hidden;whiteSpace=wrap;html=1;" parent="Gg7BF56Pxi4QzcPZmrgj-5" vertex="1">
          <mxGeometry width="60" height="30" as="geometry">
            <mxRectangle width="60" height="30" as="alternateBounds" />
          </mxGeometry>
        </mxCell>
        <mxCell id="Gg7BF56Pxi4QzcPZmrgj-7" value="회원" style="shape=partialRectangle;connectable=0;fillColor=none;top=0;left=0;bottom=0;right=0;align=left;spacingLeft=6;fontStyle=0;overflow=hidden;whiteSpace=wrap;html=1;" parent="Gg7BF56Pxi4QzcPZmrgj-5" vertex="1">
          <mxGeometry x="60" width="484.75" height="30" as="geometry">
            <mxRectangle width="484.75" height="30" as="alternateBounds" />
          </mxGeometry>
        </mxCell>
        <mxCell id="Gg7BF56Pxi4QzcPZmrgj-8" value="" style="shape=tableRow;horizontal=0;startSize=0;swimlaneHead=0;swimlaneBody=0;fillColor=none;collapsible=0;dropTarget=0;points=[[0,0.5],[1,0.5]];portConstraint=eastwest;top=0;left=0;right=0;bottom=1;" parent="Gg7BF56Pxi4QzcPZmrgj-1" vertex="1">
          <mxGeometry y="100" width="544.75" height="30" as="geometry" />
        </mxCell>
        <mxCell id="Gg7BF56Pxi4QzcPZmrgj-9" value="사전 조건" style="shape=partialRectangle;connectable=0;fillColor=none;top=0;left=0;bottom=0;right=0;fontStyle=1;overflow=hidden;whiteSpace=wrap;html=1;" parent="Gg7BF56Pxi4QzcPZmrgj-8" vertex="1">
          <mxGeometry width="60" height="30" as="geometry">
            <mxRectangle width="60" height="30" as="alternateBounds" />
          </mxGeometry>
        </mxCell>
        <mxCell id="Gg7BF56Pxi4QzcPZmrgj-10" value="메인페이지에서 회원가입 버튼을 클릭하여 회원가입 페이지로 이동한다" style="shape=partialRectangle;connectable=0;fillColor=none;top=0;left=0;bottom=0;right=0;align=left;spacingLeft=6;fontStyle=0;overflow=hidden;whiteSpace=wrap;html=1;" parent="Gg7BF56Pxi4QzcPZmrgj-8" vertex="1">
          <mxGeometry x="60" width="484.75" height="30" as="geometry">
            <mxRectangle width="484.75" height="30" as="alternateBounds" />
          </mxGeometry>
        </mxCell>
        <mxCell id="Gg7BF56Pxi4QzcPZmrgj-11" value="" style="shape=tableRow;horizontal=0;startSize=0;swimlaneHead=0;swimlaneBody=0;fillColor=none;collapsible=0;dropTarget=0;points=[[0,0.5],[1,0.5]];portConstraint=eastwest;top=0;left=0;right=0;bottom=1;" parent="Gg7BF56Pxi4QzcPZmrgj-1" vertex="1">
          <mxGeometry y="130" width="544.75" height="30" as="geometry" />
        </mxCell>
        <mxCell id="Gg7BF56Pxi4QzcPZmrgj-12" value="사후 처리" style="shape=partialRectangle;connectable=0;fillColor=none;top=0;left=0;bottom=0;right=0;fontStyle=1;overflow=hidden;whiteSpace=wrap;html=1;" parent="Gg7BF56Pxi4QzcPZmrgj-11" vertex="1">
          <mxGeometry width="60" height="30" as="geometry">
            <mxRectangle width="60" height="30" as="alternateBounds" />
          </mxGeometry>
        </mxCell>
        <mxCell id="Gg7BF56Pxi4QzcPZmrgj-13" value="회원 정상 가입 이후 로그인 페이지로 이동" style="shape=partialRectangle;connectable=0;fillColor=none;top=0;left=0;bottom=0;right=0;align=left;spacingLeft=6;fontStyle=0;overflow=hidden;whiteSpace=wrap;html=1;" parent="Gg7BF56Pxi4QzcPZmrgj-11" vertex="1">
          <mxGeometry x="60" width="484.75" height="30" as="geometry">
            <mxRectangle width="484.75" height="30" as="alternateBounds" />
          </mxGeometry>
        </mxCell>
        <mxCell id="Gg7BF56Pxi4QzcPZmrgj-14" value="" style="shape=tableRow;horizontal=0;startSize=0;swimlaneHead=0;swimlaneBody=0;fillColor=none;collapsible=0;dropTarget=0;points=[[0,0.5],[1,0.5]];portConstraint=eastwest;top=0;left=0;right=0;bottom=1;" parent="Gg7BF56Pxi4QzcPZmrgj-1" vertex="1">
          <mxGeometry y="160" width="544.75" height="170" as="geometry" />
        </mxCell>
        <mxCell id="Gg7BF56Pxi4QzcPZmrgj-15" value="기본흐름" style="shape=partialRectangle;connectable=0;fillColor=none;top=0;left=0;bottom=0;right=0;fontStyle=1;overflow=hidden;whiteSpace=wrap;html=1;" parent="Gg7BF56Pxi4QzcPZmrgj-14" vertex="1">
          <mxGeometry width="60" height="170" as="geometry">
            <mxRectangle width="60" height="170" as="alternateBounds" />
          </mxGeometry>
        </mxCell>
        <mxCell id="Gg7BF56Pxi4QzcPZmrgj-16" value="&lt;div style=&quot;text-wrap: nowrap;&quot;&gt;&lt;div&gt;1 비회원이 계정 입력란에 email 계정을 입력하고 인증 버튼을 클릭한다&lt;/div&gt;&lt;div&gt;2 시스템은 해당 계정으로 인증코드를 전송한다&lt;/div&gt;&lt;div&gt;3 시스템은 비회원이 보는 페이지에 인증코드 확인폼을 활성화 한다&lt;/div&gt;&lt;div&gt;4 회원은 이메일 인증코드를 인증코드 확인폼에 입력한 뒤 인증확인 버튼을 클릭한다&lt;/div&gt;&lt;div&gt;5 시스템은 인증확인 처리를 한뒤 인증확인 메시지를 전달한다&lt;/div&gt;&lt;div&gt;6 비회원은&amp;nbsp; 이름/연락처/주소/를 입력하고 회원가입 버튼을 클릭한다&lt;/div&gt;&lt;div&gt;7 시스템은 회원가입 처리 이후 메시지를 전달한다&lt;/div&gt;&lt;div&gt;8 비회원이 메시지 확인 버튼을 클릭한다&lt;/div&gt;&lt;div&gt;9 시스템은 로그인 페이지로 이동한다&lt;/div&gt;&lt;/div&gt;" style="shape=partialRectangle;connectable=0;fillColor=none;top=0;left=0;bottom=0;right=0;align=left;spacingLeft=6;fontStyle=0;overflow=hidden;whiteSpace=wrap;html=1;" parent="Gg7BF56Pxi4QzcPZmrgj-14" vertex="1">
          <mxGeometry x="60" width="484.75" height="170" as="geometry">
            <mxRectangle width="484.75" height="170" as="alternateBounds" />
          </mxGeometry>
        </mxCell>
        <mxCell id="Gg7BF56Pxi4QzcPZmrgj-17" value="" style="shape=tableRow;horizontal=0;startSize=0;swimlaneHead=0;swimlaneBody=0;fillColor=none;collapsible=0;dropTarget=0;points=[[0,0.5],[1,0.5]];portConstraint=eastwest;top=0;left=0;right=0;bottom=1;" parent="Gg7BF56Pxi4QzcPZmrgj-1" vertex="1">
          <mxGeometry y="330" width="544.75" height="130" as="geometry" />
        </mxCell>
        <mxCell id="Gg7BF56Pxi4QzcPZmrgj-18" value="대안흐름" style="shape=partialRectangle;connectable=0;fillColor=none;top=0;left=0;bottom=0;right=0;fontStyle=1;overflow=hidden;whiteSpace=wrap;html=1;" parent="Gg7BF56Pxi4QzcPZmrgj-17" vertex="1">
          <mxGeometry width="60" height="130" as="geometry">
            <mxRectangle width="60" height="130" as="alternateBounds" />
          </mxGeometry>
        </mxCell>
        <mxCell id="Gg7BF56Pxi4QzcPZmrgj-19" value="&lt;div&gt;취소 버튼를 입력하면 메인 화면으로 이동&lt;/div&gt;" style="shape=partialRectangle;connectable=0;fillColor=none;top=0;left=0;bottom=0;right=0;align=left;spacingLeft=6;fontStyle=0;overflow=hidden;whiteSpace=wrap;html=1;" parent="Gg7BF56Pxi4QzcPZmrgj-17" vertex="1">
          <mxGeometry x="60" width="484.75" height="130" as="geometry">
            <mxRectangle width="484.75" height="130" as="alternateBounds" />
          </mxGeometry>
        </mxCell>
        <mxCell id="Gg7BF56Pxi4QzcPZmrgj-20" value="" style="shape=tableRow;horizontal=0;startSize=0;swimlaneHead=0;swimlaneBody=0;fillColor=none;collapsible=0;dropTarget=0;points=[[0,0.5],[1,0.5]];portConstraint=eastwest;top=0;left=0;right=0;bottom=1;" parent="Gg7BF56Pxi4QzcPZmrgj-1" vertex="1">
          <mxGeometry y="460" width="544.75" height="230" as="geometry" />
        </mxCell>
        <mxCell id="Gg7BF56Pxi4QzcPZmrgj-21" value="예외흐름" style="shape=partialRectangle;connectable=0;fillColor=none;top=0;left=0;bottom=0;right=0;fontStyle=1;overflow=hidden;whiteSpace=wrap;html=1;" parent="Gg7BF56Pxi4QzcPZmrgj-20" vertex="1">
          <mxGeometry width="60" height="230" as="geometry">
            <mxRectangle width="60" height="230" as="alternateBounds" />
          </mxGeometry>
        </mxCell>
        <mxCell id="Gg7BF56Pxi4QzcPZmrgj-22" value="&lt;div style=&quot;text-wrap: nowrap;&quot;&gt;1a 동일한 계정이 있는경우&lt;/div&gt;&lt;div style=&quot;text-wrap: nowrap;&quot;&gt;&lt;span style=&quot;white-space-collapse: preserve;&quot;&gt;&#x9;&lt;/span&gt;시스템은 &#39;동일한 계정이 있습니다&#39; 라는 메시지를 비회원에게 전달&lt;br&gt;&lt;/div&gt;&lt;div style=&quot;text-wrap: nowrap;&quot;&gt;&lt;br&gt;&lt;/div&gt;&lt;div style=&quot;text-wrap: nowrap;&quot;&gt;1b 인증을 하지않고 회원가입을 하려는 경우&lt;/div&gt;&lt;div style=&quot;text-wrap: nowrap;&quot;&gt;&lt;span style=&quot;white-space-collapse: preserve;&quot;&gt;&#x9;&lt;/span&gt;시스템은 &#39;인증이 되지 않았습니다&#39; 라는 메시지를 비회원에게 전달&lt;br&gt;&lt;/div&gt;&lt;div style=&quot;text-wrap: nowrap;&quot;&gt;&lt;br&gt;&lt;/div&gt;&lt;div style=&quot;text-wrap: nowrap;&quot;&gt;1c 인증코드 입력 누락시&lt;br&gt;&lt;/div&gt;&lt;div style=&quot;text-wrap: nowrap;&quot;&gt;&lt;span style=&quot;white-space-collapse: preserve;&quot;&gt;&#x9;&lt;/span&gt;&#39;인증처리를 위한 code를 입력하세요&#39; 메시지를 비회원에게 전달&lt;br&gt;&lt;/div&gt;&lt;div style=&quot;text-wrap: nowrap;&quot;&gt;&lt;br&gt;&lt;/div&gt;&lt;div style=&quot;text-wrap: nowrap;&quot;&gt;&lt;span style=&quot;background-color: initial;&quot;&gt;1d email형식에 맞지 않는 주소 입력&lt;/span&gt;&lt;br&gt;&lt;/div&gt;&lt;div style=&quot;text-wrap: nowrap;&quot;&gt;&lt;span style=&quot;white-space-collapse: preserve;&quot;&gt;&#x9;&lt;/span&gt;&#39;올바른 이메일 형식을 입력하세요&#39; 라는 메시지를 비회원에게 전달&lt;/div&gt;" style="shape=partialRectangle;connectable=0;fillColor=none;top=0;left=0;bottom=0;right=0;align=left;spacingLeft=6;fontStyle=0;overflow=hidden;whiteSpace=wrap;html=1;" parent="Gg7BF56Pxi4QzcPZmrgj-20" vertex="1">
          <mxGeometry x="60" width="484.75" height="230" as="geometry">
            <mxRectangle width="484.75" height="230" as="alternateBounds" />
          </mxGeometry>
        </mxCell>
        <mxCell id="Gg7BF56Pxi4QzcPZmrgj-23" value="&lt;div&gt;&amp;lt;&amp;lt;유스케이스 명세서&amp;gt;&amp;gt;&lt;/div&gt;유스케이스명 : 커뮤니티 글 작성" style="shape=table;startSize=40;container=1;collapsible=1;childLayout=tableLayout;fixedRows=1;rowLines=0;fontStyle=1;align=center;resizeLast=1;html=1;" parent="1" vertex="1">
          <mxGeometry x="650" y="-1110" width="586.75" height="690" as="geometry" />
        </mxCell>
        <mxCell id="Gg7BF56Pxi4QzcPZmrgj-24" value="" style="shape=tableRow;horizontal=0;startSize=0;swimlaneHead=0;swimlaneBody=0;fillColor=none;collapsible=0;dropTarget=0;points=[[0,0.5],[1,0.5]];portConstraint=eastwest;top=0;left=0;right=0;bottom=1;strokeColor=default;verticalAlign=middle;fontStyle=0" parent="Gg7BF56Pxi4QzcPZmrgj-23" vertex="1">
          <mxGeometry y="40" width="586.75" height="30" as="geometry" />
        </mxCell>
        <mxCell id="Gg7BF56Pxi4QzcPZmrgj-25" value="목표" style="shape=partialRectangle;connectable=0;fillColor=none;top=0;left=0;bottom=0;right=0;fontStyle=1;overflow=hidden;whiteSpace=wrap;html=1;" parent="Gg7BF56Pxi4QzcPZmrgj-24" vertex="1">
          <mxGeometry width="60" height="30" as="geometry">
            <mxRectangle width="60" height="30" as="alternateBounds" />
          </mxGeometry>
        </mxCell>
        <mxCell id="Gg7BF56Pxi4QzcPZmrgj-26" value="&lt;span style=&quot;font-weight: 400; text-wrap: nowrap;&quot;&gt;회원이 커뮤니티에 게시글을 작성할 수 있도록 시스템을 통해 등록 절차를 완료한다.&lt;/span&gt;" style="shape=partialRectangle;connectable=0;fillColor=none;top=0;left=0;bottom=0;right=0;align=left;spacingLeft=6;fontStyle=1;overflow=hidden;whiteSpace=wrap;html=1;" parent="Gg7BF56Pxi4QzcPZmrgj-24" vertex="1">
          <mxGeometry x="60" width="526.75" height="30" as="geometry">
            <mxRectangle width="526.75" height="30" as="alternateBounds" />
          </mxGeometry>
        </mxCell>
        <mxCell id="Gg7BF56Pxi4QzcPZmrgj-27" value="" style="shape=tableRow;horizontal=0;startSize=0;swimlaneHead=0;swimlaneBody=0;fillColor=none;collapsible=0;dropTarget=0;points=[[0,0.5],[1,0.5]];portConstraint=eastwest;top=0;left=0;right=0;bottom=1;" parent="Gg7BF56Pxi4QzcPZmrgj-23" vertex="1">
          <mxGeometry y="70" width="586.75" height="30" as="geometry" />
        </mxCell>
        <mxCell id="Gg7BF56Pxi4QzcPZmrgj-28" value="엑터" style="shape=partialRectangle;connectable=0;fillColor=none;top=0;left=0;bottom=0;right=0;fontStyle=1;overflow=hidden;whiteSpace=wrap;html=1;" parent="Gg7BF56Pxi4QzcPZmrgj-27" vertex="1">
          <mxGeometry width="60" height="30" as="geometry">
            <mxRectangle width="60" height="30" as="alternateBounds" />
          </mxGeometry>
        </mxCell>
        <mxCell id="Gg7BF56Pxi4QzcPZmrgj-29" value="회원, 관리자" style="shape=partialRectangle;connectable=0;fillColor=none;top=0;left=0;bottom=0;right=0;align=left;spacingLeft=6;fontStyle=0;overflow=hidden;whiteSpace=wrap;html=1;" parent="Gg7BF56Pxi4QzcPZmrgj-27" vertex="1">
          <mxGeometry x="60" width="526.75" height="30" as="geometry">
            <mxRectangle width="526.75" height="30" as="alternateBounds" />
          </mxGeometry>
        </mxCell>
        <mxCell id="Gg7BF56Pxi4QzcPZmrgj-30" value="" style="shape=tableRow;horizontal=0;startSize=0;swimlaneHead=0;swimlaneBody=0;fillColor=none;collapsible=0;dropTarget=0;points=[[0,0.5],[1,0.5]];portConstraint=eastwest;top=0;left=0;right=0;bottom=1;" parent="Gg7BF56Pxi4QzcPZmrgj-23" vertex="1">
          <mxGeometry y="100" width="586.75" height="30" as="geometry" />
        </mxCell>
        <mxCell id="Gg7BF56Pxi4QzcPZmrgj-31" value="사전 조건" style="shape=partialRectangle;connectable=0;fillColor=none;top=0;left=0;bottom=0;right=0;fontStyle=1;overflow=hidden;whiteSpace=wrap;html=1;" parent="Gg7BF56Pxi4QzcPZmrgj-30" vertex="1">
          <mxGeometry width="60" height="30" as="geometry">
            <mxRectangle width="60" height="30" as="alternateBounds" />
          </mxGeometry>
        </mxCell>
        <mxCell id="Gg7BF56Pxi4QzcPZmrgj-32" value="로그인 페이지에서 로그인을 완료한다." style="shape=partialRectangle;connectable=0;fillColor=none;top=0;left=0;bottom=0;right=0;align=left;spacingLeft=6;fontStyle=0;overflow=hidden;whiteSpace=wrap;html=1;" parent="Gg7BF56Pxi4QzcPZmrgj-30" vertex="1">
          <mxGeometry x="60" width="526.75" height="30" as="geometry">
            <mxRectangle width="526.75" height="30" as="alternateBounds" />
          </mxGeometry>
        </mxCell>
        <mxCell id="Gg7BF56Pxi4QzcPZmrgj-33" value="" style="shape=tableRow;horizontal=0;startSize=0;swimlaneHead=0;swimlaneBody=0;fillColor=none;collapsible=0;dropTarget=0;points=[[0,0.5],[1,0.5]];portConstraint=eastwest;top=0;left=0;right=0;bottom=1;" parent="Gg7BF56Pxi4QzcPZmrgj-23" vertex="1">
          <mxGeometry y="130" width="586.75" height="30" as="geometry" />
        </mxCell>
        <mxCell id="Gg7BF56Pxi4QzcPZmrgj-34" value="사후 처리" style="shape=partialRectangle;connectable=0;fillColor=none;top=0;left=0;bottom=0;right=0;fontStyle=1;overflow=hidden;whiteSpace=wrap;html=1;" parent="Gg7BF56Pxi4QzcPZmrgj-33" vertex="1">
          <mxGeometry width="60" height="30" as="geometry">
            <mxRectangle width="60" height="30" as="alternateBounds" />
          </mxGeometry>
        </mxCell>
        <mxCell id="Gg7BF56Pxi4QzcPZmrgj-35" value="게시글 정상 작성 완료 후 목록에서 해당 게시글을 확인한다." style="shape=partialRectangle;connectable=0;fillColor=none;top=0;left=0;bottom=0;right=0;align=left;spacingLeft=6;fontStyle=0;overflow=hidden;whiteSpace=wrap;html=1;" parent="Gg7BF56Pxi4QzcPZmrgj-33" vertex="1">
          <mxGeometry x="60" width="526.75" height="30" as="geometry">
            <mxRectangle width="526.75" height="30" as="alternateBounds" />
          </mxGeometry>
        </mxCell>
        <mxCell id="Gg7BF56Pxi4QzcPZmrgj-36" value="" style="shape=tableRow;horizontal=0;startSize=0;swimlaneHead=0;swimlaneBody=0;fillColor=none;collapsible=0;dropTarget=0;points=[[0,0.5],[1,0.5]];portConstraint=eastwest;top=0;left=0;right=0;bottom=1;" parent="Gg7BF56Pxi4QzcPZmrgj-23" vertex="1">
          <mxGeometry y="160" width="586.75" height="170" as="geometry" />
        </mxCell>
        <mxCell id="Gg7BF56Pxi4QzcPZmrgj-37" value="기본흐름" style="shape=partialRectangle;connectable=0;fillColor=none;top=0;left=0;bottom=0;right=0;fontStyle=1;overflow=hidden;whiteSpace=wrap;html=1;" parent="Gg7BF56Pxi4QzcPZmrgj-36" vertex="1">
          <mxGeometry width="60" height="170" as="geometry">
            <mxRectangle width="60" height="170" as="alternateBounds" />
          </mxGeometry>
        </mxCell>
        <mxCell id="Gg7BF56Pxi4QzcPZmrgj-38" value="&lt;div style=&quot;text-wrap: nowrap;&quot;&gt;&lt;div&gt;1 회원이 커뮤니티 메뉴를 클릭하여 게시판으로 진입한다.&lt;/div&gt;&lt;div&gt;2 회원은 원하는 주제의 버튼을 클릭한다. (운동, 게임, 취미, 공구, 자유게시판)&lt;/div&gt;&lt;div&gt;3 회원은 각 카테고리의 세부 주제 확인 후 원하는 주제를 클릭 해 게시글 목록으로 이동한다.&lt;/div&gt;&lt;div&gt;4 회원은 페이지 하단의 글쓰기 버튼을 클릭한다.&lt;/div&gt;&lt;div&gt;5&amp;nbsp;&lt;span style=&quot;background-color: transparent; color: light-dark(rgb(0, 0, 0), rgb(255, 255, 255));&quot;&gt;회원은 게시글 제목과 내용을 입력한 후 작성 버튼을 클릭한다.&lt;/span&gt;&lt;/div&gt;&lt;div&gt;6 시스템은 게시글 등록 처리를 완료 후 확인 메시지를 전달한다.&lt;/div&gt;&lt;div&gt;7 회원은 확인 버튼을 클릭한다.&lt;/div&gt;&lt;div&gt;8 회원은 게시글 목록으로 이동한다.&lt;/div&gt;&lt;/div&gt;" style="shape=partialRectangle;connectable=0;fillColor=none;top=0;left=0;bottom=0;right=0;align=left;spacingLeft=6;fontStyle=0;overflow=hidden;whiteSpace=wrap;html=1;" parent="Gg7BF56Pxi4QzcPZmrgj-36" vertex="1">
          <mxGeometry x="60" width="526.75" height="170" as="geometry">
            <mxRectangle width="526.75" height="170" as="alternateBounds" />
          </mxGeometry>
        </mxCell>
        <mxCell id="Gg7BF56Pxi4QzcPZmrgj-39" value="" style="shape=tableRow;horizontal=0;startSize=0;swimlaneHead=0;swimlaneBody=0;fillColor=none;collapsible=0;dropTarget=0;points=[[0,0.5],[1,0.5]];portConstraint=eastwest;top=0;left=0;right=0;bottom=1;" parent="Gg7BF56Pxi4QzcPZmrgj-23" vertex="1">
          <mxGeometry y="330" width="586.75" height="130" as="geometry" />
        </mxCell>
        <mxCell id="Gg7BF56Pxi4QzcPZmrgj-40" value="대안흐름" style="shape=partialRectangle;connectable=0;fillColor=none;top=0;left=0;bottom=0;right=0;fontStyle=1;overflow=hidden;whiteSpace=wrap;html=1;" parent="Gg7BF56Pxi4QzcPZmrgj-39" vertex="1">
          <mxGeometry width="60" height="130" as="geometry">
            <mxRectangle width="60" height="130" as="alternateBounds" />
          </mxGeometry>
        </mxCell>
        <mxCell id="Gg7BF56Pxi4QzcPZmrgj-41" value="&lt;div&gt;뒤로가기 버튼를 입력하면 게시판 목록으로 이동&lt;/div&gt;" style="shape=partialRectangle;connectable=0;fillColor=none;top=0;left=0;bottom=0;right=0;align=left;spacingLeft=6;fontStyle=0;overflow=hidden;whiteSpace=wrap;html=1;" parent="Gg7BF56Pxi4QzcPZmrgj-39" vertex="1">
          <mxGeometry x="60" width="526.75" height="130" as="geometry">
            <mxRectangle width="526.75" height="130" as="alternateBounds" />
          </mxGeometry>
        </mxCell>
        <mxCell id="Gg7BF56Pxi4QzcPZmrgj-42" value="" style="shape=tableRow;horizontal=0;startSize=0;swimlaneHead=0;swimlaneBody=0;fillColor=none;collapsible=0;dropTarget=0;points=[[0,0.5],[1,0.5]];portConstraint=eastwest;top=0;left=0;right=0;bottom=1;" parent="Gg7BF56Pxi4QzcPZmrgj-23" vertex="1">
          <mxGeometry y="460" width="586.75" height="230" as="geometry" />
        </mxCell>
        <mxCell id="Gg7BF56Pxi4QzcPZmrgj-43" value="예외흐름" style="shape=partialRectangle;connectable=0;fillColor=none;top=0;left=0;bottom=0;right=0;fontStyle=1;overflow=hidden;whiteSpace=wrap;html=1;" parent="Gg7BF56Pxi4QzcPZmrgj-42" vertex="1">
          <mxGeometry width="60" height="230" as="geometry">
            <mxRectangle width="60" height="230" as="alternateBounds" />
          </mxGeometry>
        </mxCell>
        <mxCell id="Gg7BF56Pxi4QzcPZmrgj-44" value="&lt;div style=&quot;text-wrap: nowrap;&quot;&gt;4 비회원이 글쓰기 버튼 클릭시 시스템은 로그인 페이지로 이동시킨다.&lt;/div&gt;&lt;div style=&quot;text-wrap: nowrap;&quot;&gt;5a 게시글 작성 취소 버튼을 누르면 작성이 취소되었습니다.메시지를 회원에게 전달한다.&lt;/div&gt;&lt;div style=&quot;text-wrap: nowrap;&quot;&gt;5b 게시글 제목 글자수가 일정 수 이상시 더이상 입력할 수 없습니다.메시지를 회원에게 전달&lt;/div&gt;&lt;div style=&quot;text-wrap: nowrap;&quot;&gt;5c 게시글 내용 글자수가 일정 수 이상시 더이상 입력할 수 없습니다. 메시지를 회원에게 전달&lt;/div&gt;&lt;div style=&quot;text-wrap: nowrap;&quot;&gt;&lt;span style=&quot;background-color: transparent; color: light-dark(rgb(0, 0, 0), rgb(255, 255, 255));&quot;&gt;7 일정 시간 내에 여러개의 글 작성 시 아직 게시글을 작성할 수 없습니다 메시지 회원에게 전달&lt;/span&gt;&lt;br&gt;&lt;/div&gt;" style="shape=partialRectangle;connectable=0;fillColor=none;top=0;left=0;bottom=0;right=0;align=left;spacingLeft=6;fontStyle=0;overflow=hidden;whiteSpace=wrap;html=1;" parent="Gg7BF56Pxi4QzcPZmrgj-42" vertex="1">
          <mxGeometry x="60" width="526.75" height="230" as="geometry">
            <mxRectangle width="526.75" height="230" as="alternateBounds" />
          </mxGeometry>
        </mxCell>
      </root>
    </mxGraphModel>
  </diagram>
  <diagram id="g-2_9mxfaCIt5If7OXFm" name="화면 흐름도">
    <mxGraphModel dx="2525" dy="2070" grid="0" gridSize="10" guides="1" tooltips="1" connect="1" arrows="1" fold="1" page="0" pageScale="1" pageWidth="827" pageHeight="1169" background="none" math="0" shadow="0">
      <root>
        <mxCell id="0" />
        <mxCell id="1" parent="0" />
        <mxCell id="4lw_tbLEfJc3bsJ53UJN-11" style="edgeStyle=orthogonalEdgeStyle;rounded=0;orthogonalLoop=1;jettySize=auto;html=1;exitX=0.5;exitY=0;exitDx=0;exitDy=0;entryX=0;entryY=0.5;entryDx=0;entryDy=0;" parent="1" source="4lw_tbLEfJc3bsJ53UJN-1" target="4lw_tbLEfJc3bsJ53UJN-2" edge="1">
          <mxGeometry relative="1" as="geometry" />
        </mxCell>
        <mxCell id="4lw_tbLEfJc3bsJ53UJN-12" style="edgeStyle=orthogonalEdgeStyle;rounded=0;orthogonalLoop=1;jettySize=auto;html=1;entryX=0;entryY=0.5;entryDx=0;entryDy=0;exitX=0.5;exitY=1;exitDx=0;exitDy=0;" parent="1" source="4lw_tbLEfJc3bsJ53UJN-1" target="4lw_tbLEfJc3bsJ53UJN-10" edge="1">
          <mxGeometry relative="1" as="geometry" />
        </mxCell>
        <mxCell id="4lw_tbLEfJc3bsJ53UJN-1" value="사용자&lt;div&gt;(비회원)&lt;/div&gt;" style="rounded=0;whiteSpace=wrap;html=1;" parent="1" vertex="1">
          <mxGeometry x="124" y="209" width="110" height="40" as="geometry" />
        </mxCell>
        <mxCell id="4lw_tbLEfJc3bsJ53UJN-23" style="edgeStyle=orthogonalEdgeStyle;rounded=0;orthogonalLoop=1;jettySize=auto;html=1;exitX=1;exitY=0.5;exitDx=0;exitDy=0;entryX=0;entryY=0.5;entryDx=0;entryDy=0;" parent="1" source="4lw_tbLEfJc3bsJ53UJN-2" target="4lw_tbLEfJc3bsJ53UJN-6" edge="1">
          <mxGeometry relative="1" as="geometry" />
        </mxCell>
        <mxCell id="4lw_tbLEfJc3bsJ53UJN-25" style="edgeStyle=orthogonalEdgeStyle;rounded=0;orthogonalLoop=1;jettySize=auto;html=1;entryX=0;entryY=0.5;entryDx=0;entryDy=0;" parent="1" source="4lw_tbLEfJc3bsJ53UJN-2" target="4lw_tbLEfJc3bsJ53UJN-4" edge="1">
          <mxGeometry relative="1" as="geometry" />
        </mxCell>
        <mxCell id="4lw_tbLEfJc3bsJ53UJN-27" style="edgeStyle=orthogonalEdgeStyle;rounded=0;orthogonalLoop=1;jettySize=auto;html=1;exitX=1;exitY=0.5;exitDx=0;exitDy=0;entryX=0;entryY=0.5;entryDx=0;entryDy=0;" parent="1" source="4lw_tbLEfJc3bsJ53UJN-2" target="4lw_tbLEfJc3bsJ53UJN-3" edge="1">
          <mxGeometry relative="1" as="geometry" />
        </mxCell>
        <mxCell id="4lw_tbLEfJc3bsJ53UJN-2" value="키워드별&lt;div&gt;매칭 검색&lt;/div&gt;" style="rounded=0;whiteSpace=wrap;html=1;" parent="1" vertex="1">
          <mxGeometry x="266" y="132" width="110" height="40" as="geometry" />
        </mxCell>
        <mxCell id="4lw_tbLEfJc3bsJ53UJN-31" style="edgeStyle=orthogonalEdgeStyle;rounded=0;orthogonalLoop=1;jettySize=auto;html=1;exitX=1;exitY=0.5;exitDx=0;exitDy=0;entryX=0;entryY=0.5;entryDx=0;entryDy=0;" parent="1" source="4lw_tbLEfJc3bsJ53UJN-3" target="4lw_tbLEfJc3bsJ53UJN-8" edge="1">
          <mxGeometry relative="1" as="geometry" />
        </mxCell>
        <mxCell id="4lw_tbLEfJc3bsJ53UJN-3" value="장소별" style="rounded=0;whiteSpace=wrap;html=1;flipH=0;flipV=1;" parent="1" vertex="1">
          <mxGeometry x="418" y="107" width="110" height="40" as="geometry" />
        </mxCell>
        <mxCell id="4lw_tbLEfJc3bsJ53UJN-32" style="edgeStyle=orthogonalEdgeStyle;rounded=0;orthogonalLoop=1;jettySize=auto;html=1;entryX=0;entryY=0.5;entryDx=0;entryDy=0;" parent="1" source="4lw_tbLEfJc3bsJ53UJN-4" target="4lw_tbLEfJc3bsJ53UJN-8" edge="1">
          <mxGeometry relative="1" as="geometry" />
        </mxCell>
        <mxCell id="4lw_tbLEfJc3bsJ53UJN-4" value="마감 임박 매칭" style="rounded=0;whiteSpace=wrap;html=1;flipH=0;flipV=1;" parent="1" vertex="1">
          <mxGeometry x="418" y="163" width="110" height="40" as="geometry" />
        </mxCell>
        <mxCell id="4lw_tbLEfJc3bsJ53UJN-33" style="edgeStyle=orthogonalEdgeStyle;rounded=0;orthogonalLoop=1;jettySize=auto;html=1;entryX=0;entryY=0.5;entryDx=0;entryDy=0;" parent="1" source="4lw_tbLEfJc3bsJ53UJN-5" target="4lw_tbLEfJc3bsJ53UJN-8" edge="1">
          <mxGeometry relative="1" as="geometry" />
        </mxCell>
        <mxCell id="4lw_tbLEfJc3bsJ53UJN-5" value="모집중인 매칭" style="rounded=0;whiteSpace=wrap;html=1;flipH=0;flipV=1;" parent="1" vertex="1">
          <mxGeometry x="418" y="220" width="110" height="40" as="geometry" />
        </mxCell>
        <mxCell id="4lw_tbLEfJc3bsJ53UJN-29" style="edgeStyle=orthogonalEdgeStyle;rounded=0;orthogonalLoop=1;jettySize=auto;html=1;entryX=0;entryY=0.5;entryDx=0;entryDy=0;" parent="1" source="4lw_tbLEfJc3bsJ53UJN-6" target="4lw_tbLEfJc3bsJ53UJN-8" edge="1">
          <mxGeometry relative="1" as="geometry" />
        </mxCell>
        <mxCell id="4lw_tbLEfJc3bsJ53UJN-6" value="카테고리별" style="rounded=0;whiteSpace=wrap;html=1;flipH=0;flipV=1;" parent="1" vertex="1">
          <mxGeometry x="418" y="50" width="110" height="40" as="geometry" />
        </mxCell>
        <mxCell id="4lw_tbLEfJc3bsJ53UJN-28" style="edgeStyle=orthogonalEdgeStyle;rounded=0;orthogonalLoop=1;jettySize=auto;html=1;entryX=0.5;entryY=0;entryDx=0;entryDy=0;" parent="1" source="4lw_tbLEfJc3bsJ53UJN-8" target="4lw_tbLEfJc3bsJ53UJN-9" edge="1">
          <mxGeometry relative="1" as="geometry" />
        </mxCell>
        <mxCell id="4lw_tbLEfJc3bsJ53UJN-8" value="매칭 상세&lt;div&gt;정보 보기&lt;/div&gt;" style="rounded=0;whiteSpace=wrap;html=1;flipH=0;flipV=1;" parent="1" vertex="1">
          <mxGeometry x="600" y="132" width="110" height="40" as="geometry" />
        </mxCell>
        <mxCell id="4lw_tbLEfJc3bsJ53UJN-34" style="edgeStyle=orthogonalEdgeStyle;rounded=0;orthogonalLoop=1;jettySize=auto;html=1;entryX=0;entryY=0.5;entryDx=0;entryDy=0;" parent="1" source="4lw_tbLEfJc3bsJ53UJN-9" target="4lw_tbLEfJc3bsJ53UJN-17" edge="1">
          <mxGeometry relative="1" as="geometry" />
        </mxCell>
        <mxCell id="4lw_tbLEfJc3bsJ53UJN-35" style="edgeStyle=orthogonalEdgeStyle;rounded=0;orthogonalLoop=1;jettySize=auto;html=1;exitX=1;exitY=0.5;exitDx=0;exitDy=0;entryX=0;entryY=0.5;entryDx=0;entryDy=0;" parent="1" source="4lw_tbLEfJc3bsJ53UJN-9" target="4lw_tbLEfJc3bsJ53UJN-13" edge="1">
          <mxGeometry relative="1" as="geometry" />
        </mxCell>
        <mxCell id="4lw_tbLEfJc3bsJ53UJN-36" style="edgeStyle=orthogonalEdgeStyle;rounded=0;orthogonalLoop=1;jettySize=auto;html=1;exitX=1;exitY=0.5;exitDx=0;exitDy=0;entryX=0;entryY=0.5;entryDx=0;entryDy=0;" parent="1" source="4lw_tbLEfJc3bsJ53UJN-9" target="4lw_tbLEfJc3bsJ53UJN-16" edge="1">
          <mxGeometry relative="1" as="geometry" />
        </mxCell>
        <mxCell id="4lw_tbLEfJc3bsJ53UJN-37" style="edgeStyle=orthogonalEdgeStyle;rounded=0;orthogonalLoop=1;jettySize=auto;html=1;exitX=1;exitY=0.5;exitDx=0;exitDy=0;entryX=0;entryY=0.5;entryDx=0;entryDy=0;" parent="1" source="4lw_tbLEfJc3bsJ53UJN-9" target="4lw_tbLEfJc3bsJ53UJN-15" edge="1">
          <mxGeometry relative="1" as="geometry" />
        </mxCell>
        <mxCell id="4lw_tbLEfJc3bsJ53UJN-38" style="edgeStyle=orthogonalEdgeStyle;rounded=0;orthogonalLoop=1;jettySize=auto;html=1;exitX=1;exitY=0.5;exitDx=0;exitDy=0;entryX=0;entryY=0.5;entryDx=0;entryDy=0;" parent="1" source="4lw_tbLEfJc3bsJ53UJN-9" target="4lw_tbLEfJc3bsJ53UJN-14" edge="1">
          <mxGeometry relative="1" as="geometry" />
        </mxCell>
        <mxCell id="4lw_tbLEfJc3bsJ53UJN-9" value="로그인" style="rounded=0;whiteSpace=wrap;html=1;flipH=0;flipV=1;" parent="1" vertex="1">
          <mxGeometry x="740" y="220" width="110" height="40" as="geometry" />
        </mxCell>
        <mxCell id="4lw_tbLEfJc3bsJ53UJN-22" style="edgeStyle=orthogonalEdgeStyle;rounded=0;orthogonalLoop=1;jettySize=auto;html=1;entryX=0.5;entryY=1;entryDx=0;entryDy=0;" parent="1" source="4lw_tbLEfJc3bsJ53UJN-10" target="4lw_tbLEfJc3bsJ53UJN-9" edge="1">
          <mxGeometry relative="1" as="geometry" />
        </mxCell>
        <mxCell id="4lw_tbLEfJc3bsJ53UJN-10" value="커뮤니티&lt;div&gt;글 목록 조회&lt;/div&gt;" style="rounded=0;whiteSpace=wrap;html=1;" parent="1" vertex="1">
          <mxGeometry x="266" y="380" width="110" height="40" as="geometry" />
        </mxCell>
        <mxCell id="4lw_tbLEfJc3bsJ53UJN-13" value="매칭 신청" style="rounded=0;whiteSpace=wrap;html=1;flipH=0;flipV=1;" parent="1" vertex="1">
          <mxGeometry x="940" y="140" width="110" height="40" as="geometry" />
        </mxCell>
        <mxCell id="4lw_tbLEfJc3bsJ53UJN-40" style="edgeStyle=orthogonalEdgeStyle;rounded=0;orthogonalLoop=1;jettySize=auto;html=1;exitX=1;exitY=0.5;exitDx=0;exitDy=0;entryX=0;entryY=0.5;entryDx=0;entryDy=0;" parent="1" source="4lw_tbLEfJc3bsJ53UJN-14" target="4lw_tbLEfJc3bsJ53UJN-39" edge="1">
          <mxGeometry relative="1" as="geometry" />
        </mxCell>
        <mxCell id="4lw_tbLEfJc3bsJ53UJN-14" value="내 정보" style="rounded=0;whiteSpace=wrap;html=1;flipH=0;flipV=1;" parent="1" vertex="1">
          <mxGeometry x="940" y="380" width="110" height="40" as="geometry" />
        </mxCell>
        <mxCell id="4lw_tbLEfJc3bsJ53UJN-15" value="커뮤니티&lt;div&gt;게시글 작성&lt;/div&gt;" style="rounded=0;whiteSpace=wrap;html=1;flipH=0;flipV=1;" parent="1" vertex="1">
          <mxGeometry x="940" y="300" width="110" height="40" as="geometry" />
        </mxCell>
        <mxCell id="4lw_tbLEfJc3bsJ53UJN-16" value="친구 조회" style="rounded=0;whiteSpace=wrap;html=1;flipH=0;flipV=1;" parent="1" vertex="1">
          <mxGeometry x="940" y="220" width="110" height="40" as="geometry" />
        </mxCell>
        <mxCell id="4lw_tbLEfJc3bsJ53UJN-17" value="매칭 올리기" style="rounded=0;whiteSpace=wrap;html=1;flipH=0;flipV=1;" parent="1" vertex="1">
          <mxGeometry x="940" y="90" width="110" height="40" as="geometry" />
        </mxCell>
        <mxCell id="4lw_tbLEfJc3bsJ53UJN-24" style="edgeStyle=orthogonalEdgeStyle;rounded=0;orthogonalLoop=1;jettySize=auto;html=1;exitX=1;exitY=0.5;exitDx=0;exitDy=0;entryX=-0.004;entryY=0.415;entryDx=0;entryDy=0;entryPerimeter=0;" parent="1" source="4lw_tbLEfJc3bsJ53UJN-2" target="4lw_tbLEfJc3bsJ53UJN-5" edge="1">
          <mxGeometry relative="1" as="geometry" />
        </mxCell>
        <mxCell id="4lw_tbLEfJc3bsJ53UJN-39" value="신청한 매칭&lt;div&gt;정보 확인&lt;/div&gt;" style="rounded=0;whiteSpace=wrap;html=1;flipH=0;flipV=1;" parent="1" vertex="1">
          <mxGeometry x="1090" y="380" width="110" height="40" as="geometry" />
        </mxCell>
        <mxCell id="zKDw6Z1xlIJXgZt-MXk7-1" style="edgeStyle=orthogonalEdgeStyle;rounded=0;orthogonalLoop=1;jettySize=auto;html=1;exitX=1;exitY=0.5;exitDx=0;exitDy=0;entryX=0;entryY=0.5;entryDx=0;entryDy=0;" edge="1" parent="1" source="zKDw6Z1xlIJXgZt-MXk7-5" target="zKDw6Z1xlIJXgZt-MXk7-7">
          <mxGeometry relative="1" as="geometry">
            <Array as="points">
              <mxPoint x="297" y="900" />
              <mxPoint x="297" y="732" />
            </Array>
          </mxGeometry>
        </mxCell>
        <mxCell id="zKDw6Z1xlIJXgZt-MXk7-2" style="edgeStyle=orthogonalEdgeStyle;rounded=0;orthogonalLoop=1;jettySize=auto;html=1;entryX=0;entryY=0.5;entryDx=0;entryDy=0;exitX=1;exitY=0.5;exitDx=0;exitDy=0;" edge="1" parent="1" source="zKDw6Z1xlIJXgZt-MXk7-5" target="zKDw6Z1xlIJXgZt-MXk7-11">
          <mxGeometry relative="1" as="geometry">
            <Array as="points">
              <mxPoint x="297" y="900" />
              <mxPoint x="297" y="1088" />
            </Array>
          </mxGeometry>
        </mxCell>
        <mxCell id="zKDw6Z1xlIJXgZt-MXk7-3" style="edgeStyle=orthogonalEdgeStyle;rounded=0;orthogonalLoop=1;jettySize=auto;html=1;" edge="1" parent="1" source="zKDw6Z1xlIJXgZt-MXk7-5" target="zKDw6Z1xlIJXgZt-MXk7-18">
          <mxGeometry relative="1" as="geometry" />
        </mxCell>
        <mxCell id="zKDw6Z1xlIJXgZt-MXk7-4" style="edgeStyle=orthogonalEdgeStyle;rounded=0;orthogonalLoop=1;jettySize=auto;html=1;entryX=0;entryY=0.5;entryDx=0;entryDy=0;" edge="1" parent="1" source="zKDw6Z1xlIJXgZt-MXk7-5" target="zKDw6Z1xlIJXgZt-MXk7-27">
          <mxGeometry relative="1" as="geometry" />
        </mxCell>
        <mxCell id="zKDw6Z1xlIJXgZt-MXk7-5" value="Home" style="rounded=0;whiteSpace=wrap;html=1;" vertex="1" parent="1">
          <mxGeometry x="129" y="880" width="110" height="40" as="geometry" />
        </mxCell>
        <mxCell id="zKDw6Z1xlIJXgZt-MXk7-6" style="edgeStyle=orthogonalEdgeStyle;rounded=0;orthogonalLoop=1;jettySize=auto;html=1;" edge="1" parent="1" source="zKDw6Z1xlIJXgZt-MXk7-7" target="zKDw6Z1xlIJXgZt-MXk7-9">
          <mxGeometry relative="1" as="geometry" />
        </mxCell>
        <mxCell id="zKDw6Z1xlIJXgZt-MXk7-7" value="매칭" style="rounded=0;whiteSpace=wrap;html=1;" vertex="1" parent="1">
          <mxGeometry x="352" y="712" width="110" height="40" as="geometry" />
        </mxCell>
        <mxCell id="zKDw6Z1xlIJXgZt-MXk7-8" style="edgeStyle=orthogonalEdgeStyle;rounded=0;orthogonalLoop=1;jettySize=auto;html=1;" edge="1" parent="1" source="zKDw6Z1xlIJXgZt-MXk7-9" target="zKDw6Z1xlIJXgZt-MXk7-13">
          <mxGeometry relative="1" as="geometry">
            <Array as="points">
              <mxPoint x="660" y="732" />
              <mxPoint x="660" y="800" />
            </Array>
          </mxGeometry>
        </mxCell>
        <mxCell id="zKDw6Z1xlIJXgZt-MXk7-9" value="매칭 리스트" style="rounded=0;whiteSpace=wrap;html=1;flipH=0;flipV=1;" vertex="1" parent="1">
          <mxGeometry x="538" y="712" width="110" height="40" as="geometry" />
        </mxCell>
        <mxCell id="zKDw6Z1xlIJXgZt-MXk7-10" style="edgeStyle=orthogonalEdgeStyle;rounded=0;orthogonalLoop=1;jettySize=auto;html=1;" edge="1" parent="1" source="zKDw6Z1xlIJXgZt-MXk7-11" target="zKDw6Z1xlIJXgZt-MXk7-31">
          <mxGeometry relative="1" as="geometry" />
        </mxCell>
        <mxCell id="zKDw6Z1xlIJXgZt-MXk7-11" value="커뮤니티" style="rounded=0;whiteSpace=wrap;html=1;" vertex="1" parent="1">
          <mxGeometry x="352" y="1068" width="110" height="40" as="geometry" />
        </mxCell>
        <mxCell id="zKDw6Z1xlIJXgZt-MXk7-12" value="매칭 신청" style="rounded=0;whiteSpace=wrap;html=1;flipH=0;flipV=1;" vertex="1" parent="1">
          <mxGeometry x="884" y="716" width="110" height="40" as="geometry" />
        </mxCell>
        <mxCell id="zKDw6Z1xlIJXgZt-MXk7-13" value="매칭 올리기" style="rounded=0;whiteSpace=wrap;html=1;flipH=0;flipV=1;" vertex="1" parent="1">
          <mxGeometry x="711" y="776" width="110" height="40" as="geometry" />
        </mxCell>
        <mxCell id="zKDw6Z1xlIJXgZt-MXk7-14" value="&lt;font style=&quot;font-size: 30px;&quot;&gt;수정&lt;/font&gt;" style="rounded=0;whiteSpace=wrap;html=1;" vertex="1" parent="1">
          <mxGeometry x="199" y="552" width="174" height="60" as="geometry" />
        </mxCell>
        <mxCell id="zKDw6Z1xlIJXgZt-MXk7-15" style="edgeStyle=orthogonalEdgeStyle;rounded=0;orthogonalLoop=1;jettySize=auto;html=1;entryX=0;entryY=0.5;entryDx=0;entryDy=0;" edge="1" parent="1" source="zKDw6Z1xlIJXgZt-MXk7-18" target="zKDw6Z1xlIJXgZt-MXk7-22">
          <mxGeometry relative="1" as="geometry" />
        </mxCell>
        <mxCell id="zKDw6Z1xlIJXgZt-MXk7-16" style="edgeStyle=orthogonalEdgeStyle;rounded=0;orthogonalLoop=1;jettySize=auto;html=1;entryX=0;entryY=0.5;entryDx=0;entryDy=0;" edge="1" parent="1" source="zKDw6Z1xlIJXgZt-MXk7-18" target="zKDw6Z1xlIJXgZt-MXk7-23">
          <mxGeometry relative="1" as="geometry" />
        </mxCell>
        <mxCell id="zKDw6Z1xlIJXgZt-MXk7-17" style="edgeStyle=orthogonalEdgeStyle;rounded=0;orthogonalLoop=1;jettySize=auto;html=1;entryX=0;entryY=0.25;entryDx=0;entryDy=0;" edge="1" parent="1" source="zKDw6Z1xlIJXgZt-MXk7-18" target="zKDw6Z1xlIJXgZt-MXk7-24">
          <mxGeometry relative="1" as="geometry" />
        </mxCell>
        <mxCell id="zKDw6Z1xlIJXgZt-MXk7-18" value="친구" style="rounded=0;whiteSpace=wrap;html=1;" vertex="1" parent="1">
          <mxGeometry x="352" y="880" width="110" height="40" as="geometry" />
        </mxCell>
        <mxCell id="zKDw6Z1xlIJXgZt-MXk7-19" value="매칭 상세&lt;div&gt;정보 보기&lt;/div&gt;" style="rounded=0;whiteSpace=wrap;html=1;flipH=0;flipV=1;" vertex="1" parent="1">
          <mxGeometry x="711" y="712" width="110" height="40" as="geometry" />
        </mxCell>
        <mxCell id="zKDw6Z1xlIJXgZt-MXk7-20" style="edgeStyle=orthogonalEdgeStyle;rounded=0;orthogonalLoop=1;jettySize=auto;html=1;" edge="1" parent="1" source="zKDw6Z1xlIJXgZt-MXk7-9" target="zKDw6Z1xlIJXgZt-MXk7-19">
          <mxGeometry relative="1" as="geometry">
            <mxPoint x="557" y="906" as="sourcePoint" />
            <mxPoint x="643" y="815" as="targetPoint" />
          </mxGeometry>
        </mxCell>
        <mxCell id="zKDw6Z1xlIJXgZt-MXk7-21" style="edgeStyle=orthogonalEdgeStyle;rounded=0;orthogonalLoop=1;jettySize=auto;html=1;exitX=1;exitY=0.413;exitDx=0;exitDy=0;exitPerimeter=0;" edge="1" parent="1" source="zKDw6Z1xlIJXgZt-MXk7-19" target="zKDw6Z1xlIJXgZt-MXk7-12">
          <mxGeometry relative="1" as="geometry">
            <mxPoint x="814" y="736" as="sourcePoint" />
            <mxPoint x="721" y="742" as="targetPoint" />
          </mxGeometry>
        </mxCell>
        <mxCell id="zKDw6Z1xlIJXgZt-MXk7-22" value="채팅방 생성" style="rounded=0;whiteSpace=wrap;html=1;flipH=0;flipV=0;" vertex="1" parent="1">
          <mxGeometry x="540" y="880" width="110" height="40" as="geometry" />
        </mxCell>
        <mxCell id="zKDw6Z1xlIJXgZt-MXk7-23" value="친구 추가" style="rounded=0;whiteSpace=wrap;html=1;flipH=0;flipV=0;" vertex="1" parent="1">
          <mxGeometry x="540" y="940" width="110" height="40" as="geometry" />
        </mxCell>
        <mxCell id="zKDw6Z1xlIJXgZt-MXk7-24" value="채팅방 입장" style="rounded=0;whiteSpace=wrap;html=1;flipH=0;flipV=0;" vertex="1" parent="1">
          <mxGeometry x="540" y="1000" width="110" height="40" as="geometry" />
        </mxCell>
        <mxCell id="zKDw6Z1xlIJXgZt-MXk7-25" style="edgeStyle=orthogonalEdgeStyle;rounded=0;orthogonalLoop=1;jettySize=auto;html=1;" edge="1" parent="1" source="zKDw6Z1xlIJXgZt-MXk7-27" target="zKDw6Z1xlIJXgZt-MXk7-37">
          <mxGeometry relative="1" as="geometry" />
        </mxCell>
        <mxCell id="zKDw6Z1xlIJXgZt-MXk7-26" style="edgeStyle=orthogonalEdgeStyle;rounded=0;orthogonalLoop=1;jettySize=auto;html=1;" edge="1" parent="1" source="zKDw6Z1xlIJXgZt-MXk7-27" target="zKDw6Z1xlIJXgZt-MXk7-38">
          <mxGeometry relative="1" as="geometry">
            <Array as="points">
              <mxPoint x="501" y="1355" />
              <mxPoint x="501" y="1413" />
            </Array>
          </mxGeometry>
        </mxCell>
        <mxCell id="zKDw6Z1xlIJXgZt-MXk7-27" value="내 정보" style="rounded=0;whiteSpace=wrap;html=1;flipH=0;flipV=1;" vertex="1" parent="1">
          <mxGeometry x="355" y="1335" width="110" height="40" as="geometry" />
        </mxCell>
        <mxCell id="zKDw6Z1xlIJXgZt-MXk7-28" style="edgeStyle=orthogonalEdgeStyle;rounded=0;orthogonalLoop=1;jettySize=auto;html=1;" edge="1" parent="1" source="zKDw6Z1xlIJXgZt-MXk7-31" target="zKDw6Z1xlIJXgZt-MXk7-33">
          <mxGeometry relative="1" as="geometry">
            <Array as="points">
              <mxPoint x="698" y="1088" />
              <mxPoint x="698" y="1152" />
            </Array>
          </mxGeometry>
        </mxCell>
        <mxCell id="zKDw6Z1xlIJXgZt-MXk7-29" style="edgeStyle=orthogonalEdgeStyle;rounded=0;orthogonalLoop=1;jettySize=auto;html=1;" edge="1" parent="1" source="zKDw6Z1xlIJXgZt-MXk7-31" target="zKDw6Z1xlIJXgZt-MXk7-34">
          <mxGeometry relative="1" as="geometry">
            <Array as="points">
              <mxPoint x="698" y="1088" />
              <mxPoint x="698" y="1221" />
            </Array>
          </mxGeometry>
        </mxCell>
        <mxCell id="zKDw6Z1xlIJXgZt-MXk7-30" style="edgeStyle=orthogonalEdgeStyle;rounded=0;orthogonalLoop=1;jettySize=auto;html=1;" edge="1" parent="1" source="zKDw6Z1xlIJXgZt-MXk7-31" target="zKDw6Z1xlIJXgZt-MXk7-36">
          <mxGeometry relative="1" as="geometry">
            <Array as="points">
              <mxPoint x="698" y="1088" />
              <mxPoint x="698" y="1276" />
            </Array>
          </mxGeometry>
        </mxCell>
        <mxCell id="zKDw6Z1xlIJXgZt-MXk7-31" value="게시글 리스트" style="rounded=0;whiteSpace=wrap;html=1;flipH=0;flipV=1;" vertex="1" parent="1">
          <mxGeometry x="540" y="1068" width="110" height="40" as="geometry" />
        </mxCell>
        <mxCell id="zKDw6Z1xlIJXgZt-MXk7-32" value="글 쓰기" style="rounded=0;whiteSpace=wrap;html=1;flipH=0;flipV=1;" vertex="1" parent="1">
          <mxGeometry x="758" y="1068" width="110" height="40" as="geometry" />
        </mxCell>
        <mxCell id="zKDw6Z1xlIJXgZt-MXk7-33" value="글 수정" style="rounded=0;whiteSpace=wrap;html=1;flipH=0;flipV=1;" vertex="1" parent="1">
          <mxGeometry x="758" y="1131" width="110" height="40" as="geometry" />
        </mxCell>
        <mxCell id="zKDw6Z1xlIJXgZt-MXk7-34" value="글 삭제" style="rounded=0;whiteSpace=wrap;html=1;flipH=0;flipV=1;" vertex="1" parent="1">
          <mxGeometry x="758" y="1193" width="110" height="40" as="geometry" />
        </mxCell>
        <mxCell id="zKDw6Z1xlIJXgZt-MXk7-35" style="edgeStyle=orthogonalEdgeStyle;rounded=0;orthogonalLoop=1;jettySize=auto;html=1;" edge="1" parent="1" source="zKDw6Z1xlIJXgZt-MXk7-31" target="zKDw6Z1xlIJXgZt-MXk7-32">
          <mxGeometry relative="1" as="geometry">
            <mxPoint x="621" y="1085" as="sourcePoint" />
            <mxPoint x="550" y="1098" as="targetPoint" />
          </mxGeometry>
        </mxCell>
        <mxCell id="zKDw6Z1xlIJXgZt-MXk7-36" value="글 보기" style="rounded=0;whiteSpace=wrap;html=1;flipH=0;flipV=1;" vertex="1" parent="1">
          <mxGeometry x="758" y="1256" width="110" height="40" as="geometry" />
        </mxCell>
        <mxCell id="zKDw6Z1xlIJXgZt-MXk7-37" value="정보 수정" style="rounded=0;whiteSpace=wrap;html=1;flipH=0;flipV=1;" vertex="1" parent="1">
          <mxGeometry x="540" y="1335" width="110" height="40" as="geometry" />
        </mxCell>
        <mxCell id="zKDw6Z1xlIJXgZt-MXk7-38" value="매칭 내역" style="rounded=0;whiteSpace=wrap;html=1;flipH=0;flipV=1;" vertex="1" parent="1">
          <mxGeometry x="538" y="1393" width="110" height="40" as="geometry" />
        </mxCell>
      </root>
    </mxGraphModel>
  </diagram>
  <diagram id="f8bi6f7IMclld9KcvP8Z" name="메뉴구조">
    <mxGraphModel dx="1010" dy="828" grid="0" gridSize="10" guides="1" tooltips="1" connect="1" arrows="1" fold="1" page="0" pageScale="1" pageWidth="827" pageHeight="1169" math="0" shadow="0">
      <root>
        <mxCell id="0" />
        <mxCell id="1" parent="0" />
        <mxCell id="YACg-nWAKoqprpRjmQUn-29" style="edgeStyle=orthogonalEdgeStyle;rounded=0;orthogonalLoop=1;jettySize=auto;html=1;entryX=0.5;entryY=0;entryDx=0;entryDy=0;endArrow=none;endFill=0;" parent="1" source="YACg-nWAKoqprpRjmQUn-1" target="YACg-nWAKoqprpRjmQUn-4" edge="1">
          <mxGeometry relative="1" as="geometry" />
        </mxCell>
        <mxCell id="YACg-nWAKoqprpRjmQUn-30" style="edgeStyle=orthogonalEdgeStyle;rounded=0;orthogonalLoop=1;jettySize=auto;html=1;exitX=0.5;exitY=1;exitDx=0;exitDy=0;endArrow=none;endFill=0;" parent="1" source="YACg-nWAKoqprpRjmQUn-1" target="YACg-nWAKoqprpRjmQUn-3" edge="1">
          <mxGeometry relative="1" as="geometry" />
        </mxCell>
        <mxCell id="YACg-nWAKoqprpRjmQUn-31" style="edgeStyle=orthogonalEdgeStyle;rounded=0;orthogonalLoop=1;jettySize=auto;html=1;exitX=0.5;exitY=1;exitDx=0;exitDy=0;entryX=0.5;entryY=0;entryDx=0;entryDy=0;endArrow=none;endFill=0;" parent="1" source="YACg-nWAKoqprpRjmQUn-1" target="YACg-nWAKoqprpRjmQUn-2" edge="1">
          <mxGeometry relative="1" as="geometry" />
        </mxCell>
        <mxCell id="YACg-nWAKoqprpRjmQUn-32" style="edgeStyle=orthogonalEdgeStyle;rounded=0;orthogonalLoop=1;jettySize=auto;html=1;exitX=0.5;exitY=1;exitDx=0;exitDy=0;entryX=0.5;entryY=0;entryDx=0;entryDy=0;endArrow=none;endFill=0;" parent="1" source="YACg-nWAKoqprpRjmQUn-1" target="YACg-nWAKoqprpRjmQUn-6" edge="1">
          <mxGeometry relative="1" as="geometry" />
        </mxCell>
        <mxCell id="YACg-nWAKoqprpRjmQUn-33" style="edgeStyle=orthogonalEdgeStyle;rounded=0;orthogonalLoop=1;jettySize=auto;html=1;exitX=0.5;exitY=1;exitDx=0;exitDy=0;entryX=0.5;entryY=0;entryDx=0;entryDy=0;endArrow=none;endFill=0;" parent="1" source="YACg-nWAKoqprpRjmQUn-1" target="YACg-nWAKoqprpRjmQUn-7" edge="1">
          <mxGeometry relative="1" as="geometry" />
        </mxCell>
        <mxCell id="YACg-nWAKoqprpRjmQUn-34" style="edgeStyle=orthogonalEdgeStyle;rounded=0;orthogonalLoop=1;jettySize=auto;html=1;exitX=0.5;exitY=1;exitDx=0;exitDy=0;entryX=0.5;entryY=0;entryDx=0;entryDy=0;endArrow=none;endFill=0;" parent="1" source="YACg-nWAKoqprpRjmQUn-1" target="YACg-nWAKoqprpRjmQUn-8" edge="1">
          <mxGeometry relative="1" as="geometry" />
        </mxCell>
        <mxCell id="YACg-nWAKoqprpRjmQUn-35" style="edgeStyle=orthogonalEdgeStyle;rounded=0;orthogonalLoop=1;jettySize=auto;html=1;exitX=0.5;exitY=1;exitDx=0;exitDy=0;entryX=0;entryY=0.5;entryDx=0;entryDy=0;endArrow=none;endFill=0;" parent="1" source="YACg-nWAKoqprpRjmQUn-1" target="YACg-nWAKoqprpRjmQUn-5" edge="1">
          <mxGeometry relative="1" as="geometry" />
        </mxCell>
        <mxCell id="YACg-nWAKoqprpRjmQUn-1" value="홈화면" style="rounded=0;whiteSpace=wrap;html=1;fillColor=#f5f5f5;strokeColor=#666666;fontColor=#333333;" parent="1" vertex="1">
          <mxGeometry x="580" y="130" width="120" height="40" as="geometry" />
        </mxCell>
        <mxCell id="YACg-nWAKoqprpRjmQUn-2" value="매칭" style="rounded=0;whiteSpace=wrap;html=1;fillColor=#f5f5f5;strokeColor=#666666;fontColor=#333333;" parent="1" vertex="1">
          <mxGeometry x="210" y="270" width="120" height="40" as="geometry" />
        </mxCell>
        <mxCell id="YACg-nWAKoqprpRjmQUn-3" value="친구" style="rounded=0;whiteSpace=wrap;html=1;fillColor=#f5f5f5;strokeColor=#666666;fontColor=#333333;" parent="1" vertex="1">
          <mxGeometry x="358" y="270" width="120" height="40" as="geometry" />
        </mxCell>
        <mxCell id="YACg-nWAKoqprpRjmQUn-4" value="커뮤니티" style="rounded=0;whiteSpace=wrap;html=1;fillColor=#f5f5f5;strokeColor=#666666;fontColor=#333333;" parent="1" vertex="1">
          <mxGeometry x="506" y="270" width="120" height="40" as="geometry" />
        </mxCell>
        <mxCell id="YACg-nWAKoqprpRjmQUn-5" value="로그인" style="rounded=0;whiteSpace=wrap;html=1;fillColor=#f5f5f5;strokeColor=#666666;fontColor=#333333;" parent="1" vertex="1">
          <mxGeometry x="750" y="170" width="120" height="40" as="geometry" />
        </mxCell>
        <mxCell id="YACg-nWAKoqprpRjmQUn-6" value="문의" style="rounded=0;whiteSpace=wrap;html=1;fillColor=#f5f5f5;strokeColor=#666666;fontColor=#333333;" parent="1" vertex="1">
          <mxGeometry x="654" y="270" width="120" height="40" as="geometry" />
        </mxCell>
        <mxCell id="YACg-nWAKoqprpRjmQUn-7" value="알림" style="rounded=0;whiteSpace=wrap;html=1;fillColor=#f5f5f5;strokeColor=#666666;fontColor=#333333;" parent="1" vertex="1">
          <mxGeometry x="802" y="270" width="120" height="40" as="geometry" />
        </mxCell>
        <mxCell id="YACg-nWAKoqprpRjmQUn-8" value="내정보" style="rounded=0;whiteSpace=wrap;html=1;fillColor=#f5f5f5;strokeColor=#666666;fontColor=#333333;" parent="1" vertex="1">
          <mxGeometry x="950" y="270" width="120" height="40" as="geometry" />
        </mxCell>
        <mxCell id="YACg-nWAKoqprpRjmQUn-9" value="운동" style="rounded=0;whiteSpace=wrap;html=1;" parent="1" vertex="1">
          <mxGeometry x="506" y="330" width="120" height="30" as="geometry" />
        </mxCell>
        <mxCell id="YACg-nWAKoqprpRjmQUn-10" value="게임" style="rounded=0;whiteSpace=wrap;html=1;" parent="1" vertex="1">
          <mxGeometry x="506" y="370" width="120" height="30" as="geometry" />
        </mxCell>
        <mxCell id="YACg-nWAKoqprpRjmQUn-11" value="취미" style="rounded=0;whiteSpace=wrap;html=1;" parent="1" vertex="1">
          <mxGeometry x="506" y="410" width="120" height="30" as="geometry" />
        </mxCell>
        <mxCell id="YACg-nWAKoqprpRjmQUn-12" value="공구" style="rounded=0;whiteSpace=wrap;html=1;" parent="1" vertex="1">
          <mxGeometry x="506" y="450" width="120" height="30" as="geometry" />
        </mxCell>
        <mxCell id="YACg-nWAKoqprpRjmQUn-13" value="자유게시판" style="rounded=0;whiteSpace=wrap;html=1;" parent="1" vertex="1">
          <mxGeometry x="506" y="490" width="120" height="30" as="geometry" />
        </mxCell>
        <mxCell id="YACg-nWAKoqprpRjmQUn-19" value="운동" style="rounded=0;whiteSpace=wrap;html=1;" parent="1" vertex="1">
          <mxGeometry x="210" y="330" width="120" height="30" as="geometry" />
        </mxCell>
        <mxCell id="YACg-nWAKoqprpRjmQUn-20" value="여행" style="rounded=0;whiteSpace=wrap;html=1;" parent="1" vertex="1">
          <mxGeometry x="210" y="370" width="120" height="30" as="geometry" />
        </mxCell>
        <mxCell id="YACg-nWAKoqprpRjmQUn-21" value="게임" style="rounded=0;whiteSpace=wrap;html=1;" parent="1" vertex="1">
          <mxGeometry x="210" y="410" width="120" height="30" as="geometry" />
        </mxCell>
        <mxCell id="YACg-nWAKoqprpRjmQUn-22" value="기타" style="rounded=0;whiteSpace=wrap;html=1;" parent="1" vertex="1">
          <mxGeometry x="210" y="450" width="120" height="30" as="geometry" />
        </mxCell>
        <mxCell id="YACg-nWAKoqprpRjmQUn-23" value="회원가입" style="rounded=0;whiteSpace=wrap;html=1;fillColor=#f5f5f5;strokeColor=#666666;fontColor=#333333;" parent="1" vertex="1">
          <mxGeometry x="880" y="170" width="120" height="40" as="geometry" />
        </mxCell>
        <mxCell id="YACg-nWAKoqprpRjmQUn-26" value="매칭 내역" style="rounded=0;whiteSpace=wrap;html=1;" parent="1" vertex="1">
          <mxGeometry x="950" y="330" width="120" height="30" as="geometry" />
        </mxCell>
        <mxCell id="YACg-nWAKoqprpRjmQUn-28" value="내정보 수정" style="rounded=0;whiteSpace=wrap;html=1;" parent="1" vertex="1">
          <mxGeometry x="950" y="370" width="120" height="30" as="geometry" />
        </mxCell>
      </root>
    </mxGraphModel>
  </diagram>
</mxfile>
